<svg width="615" height="580" viewBox="0 0 615 580" fill="none" xmlns="http://www.w3.org/2000/svg">
<g filter="url(#filter0_d_60_5484)">
<path fill-rule="evenodd" clip-rule="evenodd" d="M386.872 29.5613C384.925 22.636 377.732 18.6011 370.806 20.5489L29.7386 116.48C22.8134 118.428 18.7784 125.621 20.7262 132.546L38.1122 194.359L404.258 91.3744L386.872 29.5613Z" fill="#8EB5EB"/>
<path d="M63.5779 284.898C65.5257 291.823 72.7188 295.858 79.644 293.911L420.712 197.979C427.637 196.032 431.672 188.838 429.724 181.913L404.258 91.3744L38.1122 194.359L63.5779 284.898Z" fill="#EFEFEF"/>
<g filter="url(#filter1_i_60_5484)">
<rect x="307.635" y="130.429" width="90.1228" height="25.2573" rx="12.6287" transform="rotate(-15.7096 307.635 130.429)" fill="#243F73"/>
<rect x="307.989" y="130.628" width="89.5487" height="24.6833" rx="12.3417" transform="rotate(-15.7096 307.989 130.628)" stroke="#4B5563" stroke-width="0.57403"/>
<path d="M336.279 131.282C336.395 131.249 336.525 131.249 336.668 131.28C336.817 131.301 336.938 131.351 337.032 131.432L341.361 135.232L340.732 135.382L342.527 129.887C342.621 129.619 342.793 129.45 343.042 129.38C343.241 129.324 343.439 129.344 343.636 129.441C343.833 129.537 343.963 129.698 344.026 129.921L346.05 137.119C346.111 137.334 346.091 137.536 345.993 137.725C345.891 137.906 345.725 138.029 345.493 138.094C345.261 138.159 345.05 138.142 344.861 138.043C344.679 137.934 344.557 137.771 344.496 137.556L342.849 131.701L343.366 131.676L341.917 136.256C341.868 136.368 341.795 136.473 341.698 136.572C341.609 136.669 341.505 136.729 341.386 136.754C341.281 136.792 341.161 136.795 341.026 136.761C340.9 136.725 340.787 136.672 340.686 136.602L337.256 133.516L337.394 132.766L339.163 139.056C339.224 139.271 339.209 139.472 339.118 139.659C339.025 139.837 338.871 139.956 338.656 140.017C338.448 140.075 338.259 140.052 338.087 139.949C337.912 139.837 337.794 139.673 337.734 139.458L335.709 132.26C335.651 132.053 335.676 131.854 335.783 131.663C335.898 131.469 336.064 131.342 336.279 131.282ZM351.547 129.08C351.762 129.02 351.96 129.04 352.141 129.141C352.321 129.242 352.443 129.405 352.506 129.629L353.985 134.887C354.046 135.102 354.027 135.304 353.928 135.493C353.826 135.674 353.668 135.794 353.453 135.855C353.237 135.916 353.039 135.895 352.859 135.794C352.676 135.684 352.554 135.522 352.493 135.306L352.322 134.697L352.627 134.732C352.657 134.84 352.637 134.989 352.565 135.179C352.491 135.361 352.375 135.554 352.218 135.759C352.061 135.965 351.861 136.159 351.618 136.344C351.381 136.518 351.105 136.649 350.79 136.738C350.218 136.899 349.659 136.899 349.114 136.74C348.566 136.572 348.083 136.27 347.665 135.833C347.253 135.385 346.952 134.826 346.763 134.155C346.572 133.475 346.537 132.841 346.658 132.253C346.784 131.654 347.035 131.145 347.409 130.727C347.781 130.3 348.245 130.009 348.8 129.853C349.156 129.753 349.499 129.714 349.827 129.738C350.156 129.762 350.451 129.827 350.713 129.932C350.984 130.034 351.201 130.157 351.366 130.298C351.537 130.429 351.639 130.552 351.672 130.668L351.27 130.956L351.014 130.048C350.954 129.833 350.974 129.635 351.075 129.454C351.174 129.265 351.332 129.141 351.547 129.08ZM350.592 135.318C350.956 135.216 351.25 135.035 351.472 134.775C351.694 134.516 351.836 134.208 351.896 133.851C351.965 133.492 351.945 133.118 351.835 132.728C351.723 132.33 351.544 131.996 351.298 131.726C351.061 131.453 350.779 131.263 350.455 131.158C350.13 131.053 349.785 131.051 349.421 131.154C349.064 131.254 348.775 131.434 348.553 131.693C348.331 131.952 348.185 132.261 348.116 132.621C348.056 132.978 348.081 133.355 348.193 133.753C348.303 134.142 348.476 134.473 348.714 134.746C348.96 135.017 349.245 135.205 349.57 135.31C349.895 135.416 350.235 135.418 350.592 135.318ZM354.052 128.644L356.999 127.815C357.197 127.759 357.382 127.779 357.552 127.874C357.722 127.969 357.835 128.117 357.891 128.315C357.944 128.506 357.923 128.686 357.828 128.856C357.73 129.018 357.582 129.127 357.383 129.182L354.437 130.011C354.238 130.067 354.054 130.047 353.884 129.952C353.714 129.857 353.601 129.71 353.545 129.511C353.492 129.32 353.514 129.144 353.611 128.982C353.706 128.813 353.854 128.7 354.052 128.644ZM354.946 126.716C355.161 126.655 355.356 126.681 355.531 126.793C355.711 126.894 355.832 127.052 355.892 127.268L357.448 132.799C357.481 132.915 357.528 133.005 357.591 133.068C357.661 133.129 357.739 133.165 357.823 133.177C357.915 133.187 358.006 133.179 358.098 133.153C358.197 133.125 358.284 133.083 358.357 133.027C358.428 132.962 358.518 132.914 358.626 132.884C358.742 132.852 358.86 132.876 358.982 132.958C359.112 133.038 359.203 133.173 359.257 133.364C359.322 133.596 359.247 133.823 359.032 134.044C358.826 134.263 358.577 134.414 358.287 134.495C358.113 134.544 357.915 134.586 357.692 134.622C357.476 134.647 357.257 134.633 357.036 134.579C356.821 134.514 356.619 134.383 356.43 134.186C356.24 133.989 356.088 133.687 355.974 133.281L354.401 127.687C354.34 127.472 354.36 127.274 354.462 127.093C354.569 126.902 354.73 126.776 354.946 126.716ZM361.892 126.17C362.365 126.038 362.789 125.972 363.165 125.973C363.549 125.973 363.862 126.037 364.104 126.165C364.352 126.283 364.511 126.467 364.581 126.715C364.627 126.881 364.622 127.053 364.565 127.23C364.505 127.399 364.379 127.51 364.189 127.563C364.056 127.601 363.94 127.616 363.839 127.608C363.745 127.59 363.656 127.561 363.574 127.522C363.491 127.482 363.397 127.451 363.292 127.427C363.195 127.4 363.056 127.399 362.875 127.423C362.7 127.437 362.571 127.455 362.488 127.478C362.066 127.597 361.731 127.79 361.484 128.056C361.245 128.32 361.091 128.631 361.022 128.991C360.951 129.342 360.972 129.72 361.087 130.126C361.199 130.524 361.377 130.858 361.624 131.129C361.876 131.389 362.168 131.57 362.501 131.673C362.842 131.774 363.2 131.772 363.572 131.667C363.78 131.609 363.954 131.546 364.096 131.479C364.239 131.413 364.352 131.34 364.438 131.263C364.535 131.164 364.619 131.064 364.689 130.964C364.759 130.864 364.886 130.788 365.068 130.737C365.284 130.676 365.469 130.7 365.625 130.808C365.778 130.908 365.883 131.058 365.939 131.256C365.997 131.464 365.934 131.687 365.751 131.926C365.566 132.157 365.298 132.38 364.947 132.595C364.602 132.799 364.21 132.963 363.771 133.087C363.116 133.271 362.506 133.282 361.942 133.118C361.375 132.947 360.885 132.638 360.473 132.19C360.07 131.74 359.777 131.192 359.595 130.546C359.404 129.866 359.373 129.231 359.502 128.64C359.637 128.039 359.908 127.524 360.315 127.097C360.728 126.659 361.254 126.35 361.892 126.17ZM368.885 124.204C369.482 124.036 369.969 124.037 370.348 124.208C370.736 124.376 371.048 124.659 371.285 125.058C371.52 125.448 371.711 125.904 371.858 126.426L372.753 129.608C372.813 129.824 372.794 130.026 372.695 130.215C372.594 130.395 372.436 130.516 372.22 130.576C372.005 130.637 371.807 130.617 371.626 130.515C371.443 130.406 371.322 130.243 371.261 130.028L370.366 126.845C370.289 126.572 370.187 126.337 370.06 126.14C369.931 125.935 369.761 125.791 369.549 125.707C369.338 125.623 369.071 125.627 368.748 125.718C368.433 125.806 368.182 125.948 367.995 126.144C367.809 126.339 367.689 126.565 367.636 126.822C367.589 127.068 367.604 127.327 367.681 127.601L368.576 130.783C368.636 130.998 368.617 131.201 368.518 131.389C368.417 131.57 368.259 131.69 368.043 131.751C367.828 131.812 367.63 131.791 367.449 131.69C367.267 131.581 367.145 131.418 367.084 131.203L364.923 123.52C364.863 123.305 364.883 123.107 364.984 122.926C365.083 122.738 365.241 122.613 365.456 122.552C365.671 122.492 365.871 122.516 366.053 122.626C366.234 122.727 366.355 122.885 366.415 123.101L367.282 126.184L367.085 126.199C367.12 126.037 367.182 125.859 367.27 125.664C367.356 125.461 367.475 125.262 367.626 125.068C367.777 124.873 367.956 124.702 368.165 124.554C368.372 124.397 368.612 124.28 368.885 124.204Z" fill="white"/>
</g>
<path d="M152.719 181.236L280.653 145.252" stroke="#8EB5EB" stroke-width="8.60879" stroke-linecap="round"/>
<path d="M156.053 197.066L260.679 167.638" stroke="#8EB5EB" stroke-width="5.3805" stroke-linecap="round"/>
<rect x="47.2728" y="164.877" width="78.4042" height="78.4042" rx="4.66692" transform="rotate(-15.7096 47.2728 164.877)" fill="#D9D9D9"/>
<circle cx="92.8449" cy="182.116" r="15.8675" transform="rotate(-15.7096 92.8449 182.116)" fill="#A1A1A1"/>
<path d="M129.987 222.816C128.194 216.441 123.942 211.04 118.167 207.8C112.392 204.561 105.566 203.748 99.1913 205.541C92.8167 207.334 87.4154 211.586 84.1757 217.361C80.9361 223.136 80.1233 229.962 81.9162 236.337L105.952 229.576L129.987 222.816Z" fill="#A1A1A1"/>
</g>
<g filter="url(#filter2_d_60_5484)">
<path fill-rule="evenodd" clip-rule="evenodd" d="M599.279 240.864C600.428 233.762 595.601 227.074 588.499 225.926L238.739 169.38C231.637 168.232 224.949 173.059 223.801 180.16L213.553 243.549L589.031 304.253L599.279 240.864Z" fill="#8EB5EB"/>
<path d="M198.542 336.395C197.394 343.497 202.221 350.185 209.322 351.333L559.083 407.879C566.185 409.027 572.873 404.201 574.021 397.099L589.031 304.253L213.553 243.549L198.542 336.395Z" fill="#EFEFEF"/>
<g filter="url(#filter3_i_60_5484)">
<rect x="484.945" y="299.007" width="90.1228" height="25.2573" rx="12.6287" transform="rotate(9.18355 484.945 299.007)" fill="#243F73"/>
<rect x="485.183" y="299.337" width="89.5487" height="24.6833" rx="12.3417" transform="rotate(9.18355 485.183 299.337)" stroke="#4B5563" stroke-width="0.57403"/>
<path d="M510.569 311.838C510.688 311.857 510.806 311.911 510.923 312C511.049 312.081 511.138 312.178 511.189 312.291L513.516 317.56L512.883 317.431L516.824 313.202C517.022 312.999 517.249 312.918 517.504 312.959C517.708 312.992 517.879 313.094 518.017 313.264C518.155 313.435 518.206 313.635 518.169 313.864L516.976 321.245C516.94 321.466 516.837 321.642 516.668 321.771C516.5 321.892 516.297 321.934 516.059 321.895C515.822 321.857 515.638 321.753 515.508 321.584C515.388 321.407 515.346 321.209 515.382 320.988L516.353 314.984L516.831 315.179L513.59 318.723C513.498 318.804 513.388 318.869 513.258 318.918C513.136 318.968 513.017 318.979 512.899 318.951C512.787 318.942 512.677 318.894 512.569 318.806C512.47 318.72 512.389 318.625 512.328 318.519L510.515 314.275L510.956 313.653L509.913 320.104C509.878 320.325 509.779 320.501 509.619 320.632C509.459 320.754 509.269 320.797 509.048 320.762C508.836 320.727 508.673 320.627 508.561 320.461C508.449 320.286 508.412 320.088 508.447 319.867L509.641 312.486C509.675 312.273 509.781 312.103 509.959 311.975C510.145 311.848 510.348 311.802 510.569 311.838ZM525.345 316.267C525.566 316.303 525.737 316.405 525.859 316.573C525.98 316.741 526.022 316.939 525.985 317.169L525.113 322.561C525.077 322.782 524.975 322.957 524.805 323.087C524.638 323.208 524.443 323.251 524.222 323.215C524.001 323.179 523.83 323.077 523.709 322.91C523.589 322.733 523.547 322.535 523.583 322.314L523.684 321.689L523.946 321.849C523.928 321.96 523.847 322.086 523.702 322.228C523.558 322.362 523.372 322.489 523.143 322.609C522.914 322.729 522.651 322.821 522.352 322.886C522.064 322.944 521.758 322.947 521.435 322.895C520.849 322.8 520.342 322.566 519.914 322.191C519.488 321.808 519.177 321.331 518.982 320.759C518.796 320.179 518.759 319.545 518.87 318.857C518.983 318.16 519.218 317.57 519.575 317.087C519.942 316.597 520.383 316.241 520.899 316.019C521.416 315.789 521.959 315.72 522.528 315.812C522.894 315.871 523.22 315.981 523.509 316.14C523.797 316.3 524.037 316.483 524.231 316.689C524.433 316.896 524.579 317.098 524.669 317.296C524.769 317.487 524.809 317.641 524.79 317.76L524.304 317.852L524.455 316.921C524.491 316.7 524.592 316.529 524.76 316.408C524.929 316.279 525.125 316.232 525.345 316.267ZM521.853 321.524C522.227 321.584 522.57 321.544 522.88 321.402C523.191 321.26 523.449 321.041 523.654 320.742C523.868 320.445 524.007 320.097 524.071 319.698C524.137 319.29 524.116 318.912 524.006 318.562C523.906 318.215 523.73 317.925 523.48 317.692C523.23 317.46 522.918 317.314 522.544 317.253C522.178 317.194 521.84 317.236 521.53 317.377C521.219 317.519 520.957 317.738 520.743 318.035C520.538 318.333 520.402 318.686 520.336 319.094C520.272 319.493 520.29 319.867 520.391 320.215C520.5 320.564 520.68 320.854 520.93 321.087C521.18 321.319 521.488 321.465 521.853 321.524ZM527.802 316.926L530.823 317.415C531.027 317.448 531.186 317.543 531.3 317.701C531.414 317.859 531.455 318.04 531.422 318.244C531.39 318.439 531.295 318.594 531.137 318.708C530.981 318.814 530.8 318.85 530.596 318.817L527.575 318.328C527.371 318.295 527.212 318.2 527.098 318.042C526.984 317.884 526.944 317.703 526.977 317.499C527.008 317.304 527.102 317.153 527.259 317.048C527.417 316.934 527.598 316.893 527.802 316.926ZM529.424 315.553C529.644 315.589 529.811 315.694 529.922 315.869C530.043 316.037 530.086 316.231 530.05 316.452L529.133 322.125C529.114 322.244 529.119 322.345 529.149 322.429C529.188 322.513 529.243 322.579 529.314 322.625C529.393 322.673 529.48 322.704 529.573 322.72C529.675 322.736 529.771 322.734 529.862 322.714C529.954 322.685 530.055 322.68 530.165 322.698C530.284 322.717 530.381 322.789 530.457 322.915C530.541 323.042 530.567 323.203 530.536 323.398C530.497 323.636 530.334 323.811 530.046 323.921C529.766 324.033 529.478 324.065 529.18 324.016C529.002 323.988 528.804 323.943 528.587 323.881C528.38 323.813 528.188 323.708 528.01 323.566C527.843 323.417 527.714 323.213 527.625 322.954C527.536 322.695 527.525 322.358 527.593 321.942L528.52 316.205C528.556 315.984 528.658 315.813 528.826 315.692C529.003 315.564 529.203 315.517 529.424 315.553ZM535.954 317.983C536.439 318.061 536.851 318.18 537.192 318.34C537.541 318.501 537.798 318.69 537.963 318.909C538.138 319.12 538.205 319.354 538.164 319.609C538.136 319.779 538.059 319.932 537.933 320.068C537.807 320.196 537.647 320.244 537.451 320.213C537.315 320.191 537.203 320.155 537.115 320.106C537.037 320.05 536.969 319.987 536.911 319.916C536.852 319.846 536.78 319.777 536.695 319.711C536.619 319.647 536.493 319.587 536.319 319.533C536.154 319.471 536.029 319.434 535.944 319.42C535.511 319.35 535.126 319.383 534.79 319.521C534.462 319.66 534.192 319.878 533.978 320.175C533.766 320.463 533.626 320.815 533.559 321.232C533.493 321.64 533.514 322.018 533.624 322.367C533.743 322.709 533.932 322.997 534.19 323.231C534.458 323.466 534.782 323.614 535.165 323.676C535.377 323.71 535.562 323.727 535.719 323.726C535.876 323.725 536.01 323.708 536.12 323.673C536.25 323.625 536.368 323.57 536.474 323.508C536.58 323.447 536.726 323.431 536.913 323.461C537.134 323.497 537.292 323.597 537.388 323.761C537.485 323.916 537.517 324.095 537.484 324.299C537.45 324.512 537.299 324.688 537.032 324.828C536.767 324.96 536.43 325.049 536.021 325.096C535.622 325.136 535.197 325.12 534.747 325.047C534.075 324.939 533.518 324.692 533.075 324.306C532.633 323.912 532.319 323.425 532.133 322.846C531.957 322.268 531.922 321.647 532.029 320.984C532.142 320.288 532.381 319.698 532.746 319.217C533.122 318.728 533.584 318.376 534.134 318.159C534.693 317.936 535.3 317.877 535.954 317.983ZM543.125 319.142C543.737 319.241 544.179 319.447 544.451 319.762C544.731 320.077 544.895 320.466 544.943 320.927C544.992 321.38 544.973 321.874 544.886 322.409L544.359 325.672C544.323 325.893 544.221 326.069 544.051 326.198C543.884 326.319 543.689 326.362 543.468 326.326C543.247 326.291 543.076 326.189 542.955 326.021C542.835 325.845 542.793 325.646 542.829 325.425L543.357 322.162C543.402 321.881 543.408 321.625 543.376 321.393C543.345 321.153 543.252 320.95 543.095 320.785C542.939 320.62 542.695 320.511 542.363 320.458C542.04 320.405 541.753 320.429 541.502 320.528C541.25 320.626 541.047 320.781 540.89 320.991C540.744 321.194 540.648 321.436 540.603 321.717L540.076 324.98C540.04 325.201 539.937 325.376 539.768 325.506C539.6 325.627 539.406 325.67 539.185 325.634C538.964 325.598 538.793 325.496 538.672 325.329C538.552 325.152 538.51 324.954 538.546 324.733L539.819 316.855C539.855 316.634 539.957 316.463 540.125 316.341C540.294 316.212 540.489 316.165 540.71 316.201C540.931 316.236 541.101 316.342 541.221 316.519C541.342 316.687 541.385 316.881 541.349 317.102L540.838 320.263L540.653 320.194C540.753 320.062 540.884 319.926 541.046 319.787C541.209 319.639 541.401 319.508 541.619 319.395C541.838 319.283 542.073 319.203 542.325 319.156C542.578 319.101 542.845 319.097 543.125 319.142Z" fill="white"/>
</g>
<path d="M323.035 279.886L454.23 301.096" stroke="#8EB5EB" stroke-width="8.60879" stroke-linecap="round"/>
<path d="M319.397 295.648L426.69 312.994" stroke="#8EB5EB" stroke-width="5.3805" stroke-linecap="round"/>
<rect x="234.272" y="220.661" width="78.4042" height="78.4042" rx="4.66692" transform="rotate(9.18355 234.272 220.661)" fill="#D9D9D9"/>
<circle cx="268.354" cy="255.481" r="15.8675" transform="rotate(9.18355 268.354 255.481)" fill="#A1A1A1"/>
<path d="M284.914 308.034C285.971 301.497 284.387 294.808 280.512 289.438C276.637 284.069 270.788 280.458 264.251 279.401C257.714 278.344 251.025 279.928 245.655 283.803C240.285 287.678 236.675 293.527 235.618 300.064L260.266 304.049L284.914 308.034Z" fill="#A1A1A1"/>
</g>
<g filter="url(#filter4_d_60_5484)">
<path fill-rule="evenodd" clip-rule="evenodd" d="M493.113 350.024C492.771 342.838 486.669 337.29 479.483 337.631L125.58 354.445C118.395 354.786 112.846 360.888 113.187 368.074L116.235 432.213L496.16 414.163L493.113 350.024Z" fill="#8EB5EB"/>
<path d="M120.698 526.159C121.039 533.345 127.141 538.894 134.327 538.552L488.23 521.739C495.416 521.397 500.965 515.295 500.623 508.109L496.16 414.163L116.235 432.213L120.698 526.159Z" fill="#EFEFEF"/>
<g filter="url(#filter5_i_60_5484)">
<rect x="393.23" y="430.5" width="90.1228" height="25.2573" rx="12.6287" transform="rotate(-2.72003 393.23 430.5)" fill="#243F73"/>
<rect x="393.53" y="430.773" width="89.5487" height="24.6833" rx="12.3417" transform="rotate(-2.72003 393.53 430.773)" stroke="#4B5563" stroke-width="0.57403"/>
<path d="M420.949 437.77C421.07 437.764 421.196 437.792 421.328 437.855C421.469 437.909 421.576 437.985 421.65 438.085L425.013 442.761L424.367 442.765L427.351 437.815C427.503 437.575 427.708 437.448 427.966 437.436C428.173 437.426 428.361 437.491 428.531 437.629C428.702 437.768 428.792 437.953 428.803 438.185L429.158 445.653C429.169 445.877 429.105 446.07 428.966 446.231C428.827 446.384 428.637 446.467 428.396 446.478C428.155 446.49 427.954 446.426 427.792 446.287C427.639 446.139 427.556 445.954 427.546 445.73L427.257 439.655L427.766 439.747L425.325 443.883C425.252 443.982 425.157 444.068 425.04 444.143C424.931 444.217 424.817 444.252 424.696 444.249C424.585 444.263 424.467 444.239 424.343 444.176C424.228 444.112 424.13 444.035 424.048 443.944L421.399 440.166L421.702 439.466L422.012 445.993C422.023 446.216 421.963 446.409 421.833 446.57C421.702 446.723 421.525 446.805 421.302 446.815C421.087 446.825 420.907 446.761 420.762 446.621C420.617 446.473 420.54 446.287 420.529 446.063L420.174 438.595C420.164 438.38 420.233 438.191 420.38 438.029C420.536 437.867 420.726 437.78 420.949 437.77ZM436.321 439.056C436.545 439.045 436.733 439.11 436.886 439.249C437.04 439.388 437.122 439.574 437.133 439.806L437.392 445.262C437.402 445.486 437.338 445.678 437.2 445.84C437.06 445.993 436.879 446.075 436.655 446.086C436.432 446.096 436.243 446.032 436.09 445.893C435.937 445.745 435.855 445.559 435.844 445.336L435.814 444.704L436.103 444.806C436.109 444.918 436.055 445.059 435.942 445.228C435.829 445.388 435.673 445.551 435.474 445.715C435.275 445.88 435.036 446.025 434.758 446.15C434.488 446.266 434.189 446.332 433.862 446.348C433.269 446.376 432.724 446.251 432.229 445.973C431.732 445.686 431.33 445.283 431.021 444.763C430.72 444.235 430.553 443.622 430.52 442.926C430.486 442.22 430.594 441.595 430.844 441.049C431.102 440.493 431.46 440.054 431.919 439.731C432.377 439.399 432.895 439.219 433.471 439.191C433.84 439.174 434.183 439.214 434.498 439.311C434.813 439.408 435.086 439.537 435.318 439.698C435.558 439.859 435.743 440.027 435.872 440.202C436.009 440.368 436.08 440.511 436.086 440.631L435.63 440.821L435.585 439.88C435.574 439.656 435.638 439.468 435.778 439.315C435.917 439.153 436.098 439.067 436.321 439.056ZM433.988 444.92C434.367 444.902 434.693 444.791 434.968 444.589C435.243 444.386 435.45 444.118 435.589 443.784C435.737 443.449 435.801 443.08 435.782 442.676C435.763 442.263 435.663 441.897 435.484 441.578C435.314 441.258 435.083 441.011 434.79 440.835C434.497 440.66 434.162 440.581 433.783 440.599C433.413 440.616 433.091 440.726 432.816 440.929C432.542 441.132 432.33 441.4 432.182 441.735C432.043 442.069 431.983 442.442 432.003 442.855C432.022 443.259 432.117 443.621 432.287 443.94C432.466 444.259 432.702 444.507 432.995 444.683C433.287 444.858 433.619 444.937 433.988 444.92ZM438.861 439.194L441.918 439.049C442.124 439.039 442.299 439.1 442.444 439.231C442.588 439.362 442.665 439.53 442.674 439.737C442.684 439.934 442.623 440.105 442.492 440.25C442.36 440.385 442.192 440.458 441.985 440.468L438.928 440.613C438.722 440.623 438.547 440.562 438.402 440.431C438.258 440.3 438.181 440.131 438.172 439.925C438.162 439.727 438.223 439.56 438.355 439.425C438.486 439.281 438.654 439.204 438.861 439.194ZM440.164 437.516C440.388 437.505 440.572 437.574 440.717 437.722C440.87 437.862 440.952 438.043 440.963 438.267L441.235 444.007C441.241 444.127 441.267 444.225 441.314 444.3C441.369 444.375 441.436 444.428 441.515 444.459C441.603 444.489 441.694 444.502 441.789 444.497C441.892 444.493 441.986 444.471 442.07 444.432C442.154 444.385 442.252 444.359 442.364 444.354C442.484 444.348 442.594 444.399 442.694 444.506C442.803 444.613 442.862 444.765 442.871 444.963C442.882 445.204 442.759 445.408 442.499 445.575C442.249 445.742 441.973 445.833 441.672 445.847C441.491 445.856 441.289 445.853 441.064 445.838C440.847 445.813 440.637 445.75 440.434 445.648C440.239 445.536 440.072 445.363 439.931 445.129C439.791 444.894 439.711 444.566 439.691 444.145L439.415 438.34C439.404 438.117 439.469 437.928 439.608 437.775C439.755 437.613 439.941 437.527 440.164 437.516ZM447.056 438.546C447.546 438.523 447.974 438.554 448.34 438.64C448.715 438.726 449.006 438.858 449.212 439.038C449.427 439.209 449.541 439.423 449.553 439.681C449.561 439.853 449.518 440.019 449.422 440.179C449.325 440.33 449.178 440.41 448.981 440.42C448.843 440.426 448.726 440.414 448.63 440.385C448.542 440.346 448.462 440.298 448.39 440.241C448.319 440.184 448.234 440.132 448.137 440.085C448.049 440.037 447.914 440.005 447.732 439.988C447.558 439.961 447.429 439.95 447.343 439.954C446.904 439.975 446.534 440.088 446.234 440.292C445.942 440.495 445.722 440.764 445.574 441.099C445.426 441.424 445.362 441.798 445.382 442.219C445.401 442.632 445.501 442.998 445.68 443.317C445.867 443.627 446.111 443.87 446.412 444.045C446.722 444.22 447.071 444.298 447.458 444.28C447.673 444.27 447.857 444.248 448.01 444.215C448.164 444.182 448.291 444.137 448.392 444.08C448.509 444.006 448.613 443.928 448.704 443.846C448.795 443.764 448.935 443.718 449.124 443.709C449.348 443.699 449.523 443.764 449.65 443.904C449.777 444.036 449.846 444.205 449.855 444.412C449.866 444.626 449.755 444.83 449.523 445.022C449.29 445.205 448.978 445.362 448.588 445.493C448.206 445.615 447.787 445.686 447.332 445.708C446.652 445.74 446.056 445.613 445.542 445.327C445.028 445.033 444.621 444.621 444.32 444.093C444.028 443.564 443.866 442.964 443.834 442.293C443.8 441.588 443.913 440.962 444.171 440.415C444.438 439.86 444.818 439.419 445.311 439.094C445.812 438.76 446.394 438.577 447.056 438.546ZM454.312 438.201C454.931 438.172 455.406 438.283 455.737 438.534C456.076 438.785 456.317 439.132 456.458 439.573C456.6 440.006 456.683 440.493 456.709 441.035L456.866 444.337C456.876 444.561 456.812 444.753 456.673 444.915C456.534 445.068 456.353 445.15 456.129 445.161C455.906 445.171 455.717 445.107 455.564 444.968C455.411 444.82 455.328 444.634 455.318 444.411L455.161 441.108C455.147 440.825 455.101 440.573 455.022 440.352C454.942 440.123 454.808 439.945 454.621 439.816C454.434 439.687 454.173 439.63 453.837 439.646C453.511 439.661 453.234 439.743 453.009 439.892C452.783 440.041 452.616 440.234 452.506 440.472C452.405 440.701 452.361 440.957 452.375 441.241L452.532 444.543C452.542 444.766 452.478 444.959 452.339 445.121C452.2 445.274 452.019 445.356 451.795 445.367C451.572 445.377 451.383 445.313 451.23 445.174C451.077 445.026 450.994 444.84 450.984 444.616L450.605 436.645C450.595 436.422 450.659 436.233 450.798 436.08C450.937 435.918 451.118 435.832 451.342 435.822C451.565 435.811 451.754 435.879 451.907 436.027C452.061 436.167 452.142 436.348 452.153 436.572L452.305 439.77L452.11 439.741C452.18 439.591 452.28 439.431 452.41 439.261C452.539 439.083 452.7 438.916 452.89 438.76C453.081 438.605 453.295 438.478 453.532 438.381C453.768 438.275 454.028 438.215 454.312 438.201Z" fill="white"/>
</g>
<path d="M230.858 445.186L363.606 438.879" stroke="#8EB5EB" stroke-width="8.60879" stroke-linecap="round"/>
<path d="M230.549 461.36L339.112 456.203" stroke="#8EB5EB" stroke-width="5.3805" stroke-linecap="round"/>
<rect x="131.787" y="405.544" width="78.4042" height="78.4042" rx="4.66692" transform="rotate(-2.72003 131.787 405.544)" fill="#D9D9D9"/>
<circle cx="172.318" cy="432.586" r="15.8675" transform="rotate(-2.72003 172.318 432.586)" fill="#A1A1A1"/>
<path d="M199.362 480.593C199.047 473.978 196.118 467.759 191.219 463.304C186.32 458.849 179.851 456.523 173.237 456.838C166.622 457.152 160.404 460.081 155.949 464.98C151.494 469.879 149.168 476.348 149.482 482.962L174.422 481.777L199.362 480.593Z" fill="#A1A1A1"/>
</g>
<defs>
<filter id="filter0_d_60_5484" x="9.47534" y="9.29803" width="431.5" height="295.863" filterUnits="userSpaceOnUse" color-interpolation-filters="sRGB">
<feFlood flood-opacity="0" result="BackgroundImageFix"/>
<feColorMatrix in="SourceAlpha" type="matrix" values="0 0 0 0 0 0 0 0 0 0 0 0 0 0 0 0 0 0 127 0" result="hardAlpha"/>
<feOffset/>
<feGaussianBlur stdDeviation="5.3805"/>
<feComposite in2="hardAlpha" operator="out"/>
<feColorMatrix type="matrix" values="0 0 0 0 0 0 0 0 0 0 0 0 0 0 0 0 0 0 0.25 0"/>
<feBlend mode="normal" in2="BackgroundImageFix" result="effect1_dropShadow_60_5484"/>
<feBlend mode="normal" in="SourceGraphic" in2="effect1_dropShadow_60_5484" result="shape"/>
</filter>
<filter id="filter1_i_60_5484" x="307.635" y="106.027" width="93.5951" height="49.8637" filterUnits="userSpaceOnUse" color-interpolation-filters="sRGB">
<feFlood flood-opacity="0" result="BackgroundImageFix"/>
<feBlend mode="normal" in="SourceGraphic" in2="BackgroundImageFix" result="shape"/>
<feColorMatrix in="SourceAlpha" type="matrix" values="0 0 0 0 0 0 0 0 0 0 0 0 0 0 0 0 0 0 127 0" result="hardAlpha"/>
<feOffset dy="1.14806"/>
<feGaussianBlur stdDeviation="0.57403"/>
<feComposite in2="hardAlpha" operator="arithmetic" k2="-1" k3="1"/>
<feColorMatrix type="matrix" values="0 0 0 0 1 0 0 0 0 1 0 0 0 0 1 0 0 0 0.4 0"/>
<feBlend mode="normal" in2="shape" result="effect1_innerShadow_60_5484"/>
</filter>
<filter id="filter2_d_60_5484" x="187.613" y="158.45" width="422.597" height="260.358" filterUnits="userSpaceOnUse" color-interpolation-filters="sRGB">
<feFlood flood-opacity="0" result="BackgroundImageFix"/>
<feColorMatrix in="SourceAlpha" type="matrix" values="0 0 0 0 0 0 0 0 0 0 0 0 0 0 0 0 0 0 127 0" result="hardAlpha"/>
<feOffset/>
<feGaussianBlur stdDeviation="5.3805"/>
<feComposite in2="hardAlpha" operator="out"/>
<feColorMatrix type="matrix" values="0 0 0 0 0 0 0 0 0 0 0 0 0 0 0 0 0 0 0.25 0"/>
<feBlend mode="normal" in2="BackgroundImageFix" result="effect1_dropShadow_60_5484"/>
<feBlend mode="normal" in="SourceGraphic" in2="effect1_dropShadow_60_5484" result="shape"/>
</filter>
<filter id="filter3_i_60_5484" x="480.914" y="299.007" width="92.9986" height="40.465" filterUnits="userSpaceOnUse" color-interpolation-filters="sRGB">
<feFlood flood-opacity="0" result="BackgroundImageFix"/>
<feBlend mode="normal" in="SourceGraphic" in2="BackgroundImageFix" result="shape"/>
<feColorMatrix in="SourceAlpha" type="matrix" values="0 0 0 0 0 0 0 0 0 0 0 0 0 0 0 0 0 0 127 0" result="hardAlpha"/>
<feOffset dy="1.14806"/>
<feGaussianBlur stdDeviation="0.57403"/>
<feComposite in2="hardAlpha" operator="arithmetic" k2="-1" k3="1"/>
<feColorMatrix type="matrix" values="0 0 0 0 1 0 0 0 0 1 0 0 0 0 1 0 0 0 0.4 0"/>
<feBlend mode="normal" in2="shape" result="effect1_innerShadow_60_5484"/>
</filter>
<filter id="filter4_d_60_5484" x="102.411" y="326.855" width="408.988" height="222.473" filterUnits="userSpaceOnUse" color-interpolation-filters="sRGB">
<feFlood flood-opacity="0" result="BackgroundImageFix"/>
<feColorMatrix in="SourceAlpha" type="matrix" values="0 0 0 0 0 0 0 0 0 0 0 0 0 0 0 0 0 0 127 0" result="hardAlpha"/>
<feOffset/>
<feGaussianBlur stdDeviation="5.3805"/>
<feComposite in2="hardAlpha" operator="out"/>
<feColorMatrix type="matrix" values="0 0 0 0 0 0 0 0 0 0 0 0 0 0 0 0 0 0 0.25 0"/>
<feBlend mode="normal" in2="BackgroundImageFix" result="effect1_dropShadow_60_5484"/>
<feBlend mode="normal" in="SourceGraphic" in2="effect1_dropShadow_60_5484" result="shape"/>
</filter>
<filter id="filter5_i_60_5484" x="393.23" y="426.224" width="91.2198" height="30.6538" filterUnits="userSpaceOnUse" color-interpolation-filters="sRGB">
<feFlood flood-opacity="0" result="BackgroundImageFix"/>
<feBlend mode="normal" in="SourceGraphic" in2="BackgroundImageFix" result="shape"/>
<feColorMatrix in="SourceAlpha" type="matrix" values="0 0 0 0 0 0 0 0 0 0 0 0 0 0 0 0 0 0 127 0" result="hardAlpha"/>
<feOffset dy="1.14806"/>
<feGaussianBlur stdDeviation="0.57403"/>
<feComposite in2="hardAlpha" operator="arithmetic" k2="-1" k3="1"/>
<feColorMatrix type="matrix" values="0 0 0 0 1 0 0 0 0 1 0 0 0 0 1 0 0 0 0.4 0"/>
<feBlend mode="normal" in2="shape" result="effect1_innerShadow_60_5484"/>
</filter>
</defs>
</svg>
