<svg width="24" height="25" viewBox="0 0 24 25" fill="none" xmlns="http://www.w3.org/2000/svg">
<g id="Group 66">
<path id="Vector" d="M16.2177 0.500012H7.37289C6.40418 0.498266 5.44467 0.691089 4.54938 1.06742C3.65409 1.44376 2.84063 1.9962 2.15565 2.69306C1.47067 3.38992 0.927657 4.2175 0.557743 5.12833C0.187829 6.03916 -0.00170449 7.01532 1.15492e-05 8.00084V16.9992C1.15492e-05 18.9885 0.776794 20.8964 2.15948 22.3031C3.54216 23.7097 5.41748 24.5 7.37289 24.5H16.2177C18.1721 24.4965 20.0454 23.7051 21.4273 22.2992C22.8093 20.8933 23.5872 18.9874 23.5906 16.9992V8.00084C23.5906 6.01149 22.8138 4.10363 21.4311 2.69695C20.0485 1.29027 18.1731 0.500012 16.2177 0.500012ZM21.4282 16.9992C21.4282 18.4051 20.8793 19.7534 19.9021 20.7475C18.925 21.7416 17.5996 22.3001 16.2177 22.3001H7.37289C5.99097 22.3001 4.66566 21.7416 3.6885 20.7475C2.71134 19.7534 2.16237 18.4051 2.16237 16.9992V8.00084C2.16237 6.59494 2.71134 5.24663 3.6885 4.25251C4.66566 3.25839 5.99097 2.6999 7.37289 2.6999H16.2177C17.5996 2.6999 18.925 3.25839 19.9021 4.25251C20.8793 5.24663 21.4282 6.59494 21.4282 8.00084V16.9992Z" fill="#1A202C"/>
<path id="Vector_2" d="M11.7888 6.50343C10.6212 6.50344 9.4798 6.85586 8.50912 7.5161C7.53844 8.17634 6.78211 9.11472 6.33587 10.2125C5.88963 11.3102 5.77354 12.5179 6.00228 13.6828C6.23103 14.8477 6.79433 15.9174 7.62089 16.7564C8.44745 17.5955 9.50011 18.1662 10.6456 18.3963C11.7912 18.6265 12.978 18.5057 14.0561 18.0493C15.1341 17.5929 16.0548 16.8214 16.7016 15.8324C17.3484 14.8434 17.6923 13.6814 17.6897 12.4935C17.6897 11.7058 17.537 10.9258 17.2403 10.1981C16.9436 9.47052 16.5087 8.80959 15.9606 8.25319C15.4125 7.69679 14.7619 7.25584 14.046 6.95559C13.3302 6.65534 12.5631 6.50169 11.7888 6.50343ZM11.7888 16.2439C11.0597 16.2439 10.347 16.024 9.74076 15.6119C9.13453 15.1998 8.66203 14.614 8.38301 13.9287C8.10399 13.2434 8.03099 12.4893 8.17323 11.7618C8.31547 11.0343 8.66657 10.3661 9.18213 9.84156C9.69769 9.31705 10.3545 8.95986 11.0696 8.81515C11.7847 8.67044 12.526 8.74471 13.1996 9.02857C13.8732 9.31243 14.4489 9.79313 14.854 10.4099C15.2591 11.0266 15.4753 11.7517 15.4753 12.4935C15.4753 12.986 15.3799 13.4737 15.1947 13.9287C15.0094 14.3837 14.7379 14.7972 14.3955 15.1455C14.0532 15.4937 13.6468 15.77 13.1996 15.9584C12.7523 16.1469 12.2729 16.2439 11.7888 16.2439Z" fill="#1A202C"/>
<path id="Vector_3" d="M18.1329 6.84763C18.5645 6.84763 18.9145 6.49163 18.9145 6.05248C18.9145 5.61333 18.5645 5.25732 18.1329 5.25732C17.7012 5.25732 17.3513 5.61333 17.3513 6.05248C17.3513 6.49163 17.7012 6.84763 18.1329 6.84763Z" fill="#1A202C"/>
</g>
</svg>
