<svg width="200" height="200" viewBox="0 0 200 200" fill="none" xmlns="http://www.w3.org/2000/svg">
<path d="M42.8266 169.676L43.8388 170.614H43.9556L44.306 170.184V170.066C43.722 169.558 43.3716 169.207 43.2938 169.05L43.2619 168.997C43.163 168.833 43.0991 168.727 43.0991 168.621C43.0991 168.542 43.177 168.386 43.2938 168.152C43.4495 167.956 43.761 167.566 44.306 166.94L45.7076 165.299L49.017 161.508L50.5354 159.75C50.7461 159.538 50.9277 159.35 51.0802 159.192C51.3222 158.942 51.491 158.767 51.5866 158.695C51.7812 158.539 51.937 158.46 52.0148 158.46C52.1316 158.46 52.2874 158.539 52.482 158.656C52.6767 158.773 53.066 159.047 53.5721 159.437H53.6889L54.0393 159.047V158.929L53.8961 158.813C52.5446 157.713 51.776 157.087 51.6255 156.936C51.4923 156.825 51.3465 156.688 51.1736 156.526C51.0432 156.404 50.8974 156.267 50.73 156.116C49.7956 155.295 49.3284 154.865 49.2895 154.826H49.1727L48.8223 155.256L48.8612 155.334C49.4063 155.881 49.7567 156.233 49.8735 156.389C49.9903 156.546 50.0292 156.702 50.0292 156.819C50.0292 156.897 49.9514 157.054 49.8346 157.288C49.7342 157.456 49.4613 157.768 49.0406 158.25L48.8223 158.499L47.4596 160.141L44.1114 163.931L42.4372 165.807L42.3285 165.928L42.3266 165.931C42.0285 166.264 41.7891 166.531 41.5807 166.706C41.386 166.901 41.1914 166.979 41.0356 166.979C40.8799 166.94 40.7242 166.862 40.4906 166.706C40.257 166.549 39.9455 166.315 39.5562 166.002H39.4394L39.089 166.393V166.51C40.5295 167.683 41.3471 168.347 41.5418 168.503C41.6331 168.577 41.7757 168.71 41.9698 168.892L41.9701 168.892C42.1898 169.098 42.4753 169.365 42.8266 169.676Z" fill="#9BBEEE"/>
<path d="M47.9268 154.24V154.123C47.3818 153.537 46.7588 152.833 46.058 151.973C45.513 151.348 45.1236 150.879 44.929 150.528H44.8122L44.4228 150.84L44.3839 150.997C44.7732 151.426 45.0068 151.778 45.0847 151.973C45.1626 152.13 45.2015 152.286 45.2015 152.364C45.1928 152.382 45.184 152.401 45.1744 152.423C45.1411 152.497 45.0974 152.595 45.0068 152.716C44.89 152.872 44.5007 153.224 43.8388 153.81C43.6433 153.982 43.4631 154.138 43.3007 154.279C42.9456 154.587 42.6754 154.822 42.5151 154.982L36.0522 160.336L38.3882 148.769L39.089 145.135L39.2836 143.963C38.8554 143.181 38.5439 142.595 38.4271 142.243C37.921 142.65 37.4314 143.072 36.9475 143.49L36.9466 143.491L36.9463 143.491C36.6861 143.716 36.4275 143.939 36.169 144.158L33.8719 146.112L29.9007 149.433C29.7697 149.527 29.5937 149.666 29.3771 149.838C29.1431 150.023 28.8616 150.245 28.5381 150.489C27.9151 150.997 27.5258 151.27 27.3312 151.387C27.1754 151.505 27.0197 151.583 26.9029 151.622C26.7471 151.622 26.5914 151.544 26.3968 151.387C26.1632 151.192 25.9296 150.957 25.6181 150.567H25.5013L25.112 150.879L25.073 151.036C25.3845 151.348 25.8906 151.895 26.5136 152.638L26.7047 152.872C27.3139 153.619 27.7919 154.205 28.1098 154.631H28.2266L28.6159 154.318L28.6549 154.162C28.3823 153.849 28.1487 153.576 28.0319 153.341C27.9151 153.146 27.8373 152.95 27.8373 152.833C27.8373 152.716 27.9151 152.56 28.0709 152.403C28.2266 152.208 28.6159 151.856 29.2778 151.27C29.5158 151.061 29.7254 150.875 29.9044 150.716L29.905 150.715L29.9081 150.712C30.1957 150.457 30.4039 150.272 30.5237 150.176L37.0255 144.744C36.9087 145.682 36.753 146.659 36.5194 147.636L34.9231 155.647L33.6773 161.235C33.9902 161.514 34.3341 161.918 34.7368 162.391C34.7851 162.447 34.8342 162.505 34.8842 162.564C35.0045 162.708 35.214 162.973 35.5036 163.338C35.6826 163.564 35.8921 163.828 36.1301 164.127H36.2469L36.6362 163.814L36.6751 163.658C36.2858 163.228 36.0522 162.915 35.9743 162.72C35.8186 162.485 35.8186 162.29 35.8575 162.056C35.8965 161.86 36.0911 161.626 36.3637 161.391L43.138 155.725C43.4106 155.49 43.8388 155.139 44.4618 154.67C45.0847 154.162 45.513 153.849 45.7076 153.732C45.9023 153.615 46.058 153.537 46.1748 153.537C46.2916 153.537 46.4474 153.615 46.681 153.81C46.8055 153.91 46.9459 154.058 47.1124 154.233C47.2063 154.332 47.3084 154.44 47.4207 154.553L47.5375 154.592L47.9268 154.24Z" fill="#9BBEEE"/>
<path d="M32.6261 141.344L32.7429 141.383C34.2613 140.641 35.2346 140.211 35.6629 140.055L35.7797 139.938C35.7407 138.687 35.3903 137.397 34.6895 136.03C33.8719 134.428 32.7039 133.333 31.2245 132.669C29.7061 132.005 28.2655 132.044 26.9029 132.747C26.2021 133.099 25.657 133.568 25.3066 134.115C24.9952 134.701 24.8394 135.287 24.8784 135.952C24.8784 136.577 25.112 137.515 25.5402 138.726C25.8517 139.625 26.0464 140.25 26.1242 140.602C26.2021 140.993 26.2021 141.305 26.1632 141.657C26.1242 141.97 25.9685 142.282 25.7349 142.556C25.5402 142.868 25.2288 143.103 24.8394 143.298C24.3722 143.572 23.7882 143.689 23.2042 143.689C22.6202 143.689 22.0752 143.494 21.608 143.142C21.1408 142.751 20.7514 142.282 20.4789 141.735C20.1285 141.071 19.9728 140.406 19.9728 139.703C20.0117 138.961 20.0896 138.57 20.2842 138.413C20.4789 138.296 20.9461 138.023 21.7248 137.632L21.7637 137.515L21.4912 137.007L21.3744 136.968C20.2453 137.476 19.3498 137.827 18.688 137.984L18.6101 138.101C18.6101 138.804 18.7269 139.508 18.9216 140.25C19.1162 140.993 19.3498 141.618 19.6613 142.204C20.3621 143.611 21.3354 144.549 22.5424 144.979C23.7493 145.408 24.9562 145.33 26.2021 144.744C26.6304 144.51 27.0197 144.197 27.3312 143.884C27.6426 143.533 27.8762 143.181 28.0319 142.79C28.1877 142.399 28.2655 141.97 28.2266 141.54C28.2266 141.071 28.1877 140.641 28.0709 140.25C27.9541 139.82 27.7984 139.273 27.5648 138.57C27.3312 137.866 27.1754 137.319 27.0975 136.929C27.0197 136.538 27.0197 136.147 27.0975 135.795C27.1365 135.444 27.2922 135.092 27.5258 134.818C27.7594 134.506 28.1098 134.232 28.5381 133.998C29.161 133.724 29.7839 133.568 30.4458 133.646C31.0687 133.685 31.6527 133.92 32.1978 134.349C32.7429 134.779 33.1711 135.326 33.5215 135.991C33.7941 136.499 33.9887 137.046 34.1055 137.593C34.2223 138.14 34.2613 138.609 34.1834 139C34.1445 139.39 34.0277 139.703 33.8719 139.82C33.7162 139.977 33.2101 140.289 32.4314 140.719L32.3925 140.875L32.6261 141.344Z" fill="#9BBEEE"/>
<path d="M12.264 122.079L12.1861 122.196C12.6144 123.329 13.3152 125.322 14.2496 128.175C15.1451 130.989 15.768 132.982 16.1184 134.193L16.2352 134.271C16.6422 134.083 17.4018 133.818 18.5544 133.417C18.835 133.319 19.1389 133.214 19.4666 133.099L19.5445 133.021L19.3888 132.513L19.272 132.474L18.2597 132.669C17.5978 132.825 17.2085 132.864 17.0917 132.825C16.936 132.786 16.7802 132.552 16.5856 132.083C16.5488 131.981 16.5099 131.873 16.4688 131.759C16.3358 131.39 16.18 130.958 16.0016 130.481L15.4954 128.918C16.8236 128.463 17.6603 128.15 18.0237 128.013C18.129 127.974 18.1945 127.949 18.2208 127.941L24.2944 125.987L26.4746 125.322C27.2144 125.049 27.7205 124.932 27.9541 124.932C28.1877 124.893 28.3434 124.893 28.4213 124.971C28.4991 125.01 28.6159 125.127 28.7327 125.322C28.8386 125.5 28.9764 125.869 29.1751 126.402L29.2389 126.573L29.3557 126.651L29.8618 126.495L29.9007 126.378C29.2778 124.658 28.9274 123.681 28.8495 123.447C28.8294 123.346 28.7366 123.026 28.5818 122.492L28.5815 122.492C28.4367 121.992 28.2375 121.306 27.993 120.438L27.8762 120.399L27.3701 120.594L27.3312 120.672C27.5258 121.415 27.6426 121.884 27.6426 122.079C27.6426 122.313 27.6426 122.431 27.6037 122.548C27.5258 122.626 27.409 122.704 27.1754 122.821C26.9418 122.939 26.4357 123.134 25.657 123.369L23.6325 124.072L17.5589 126.026C17.3253 126.104 16.4298 126.378 14.8336 126.807L14.1717 124.854C14.016 124.385 13.8992 123.955 13.8213 123.564C13.7435 123.173 13.7045 122.939 13.7435 122.861C13.7435 122.782 13.8213 122.704 13.9381 122.626C14.0549 122.548 14.3275 122.392 14.8336 122.196L15.768 121.766L15.8069 121.649L15.6512 121.141L15.5733 121.102C14.016 121.61 12.8869 121.923 12.264 122.079Z" fill="#9BBEEE"/>
<path d="M11.4853 117.702L11.68 119.031L11.7579 119.109L12.3029 119.031L12.3419 118.914C12.3226 118.73 12.3034 118.561 12.2859 118.407C12.2326 117.939 12.1957 117.615 12.2251 117.468C12.2251 117.272 12.264 117.116 12.3419 117.038C12.4197 116.96 12.5755 116.882 12.8091 116.803C13.0427 116.725 13.5488 116.608 14.3664 116.452L16.4688 116.1L21.4522 115.201L23.7493 114.811C24.489 114.693 24.9952 114.615 25.2288 114.615C25.4624 114.654 25.6181 114.693 25.696 114.732C25.7738 114.811 25.8906 114.928 25.9685 115.162C26.0464 115.358 26.1632 115.827 26.3189 116.452L26.3968 116.53L26.9029 116.452L26.9808 116.335C26.5914 114.537 26.3968 113.521 26.3578 113.286C26.3393 113.157 26.3121 113 26.2802 112.818C26.2449 112.615 26.2041 112.381 26.1632 112.114C26.0499 111.205 25.9572 110.626 25.9151 110.363C25.8993 110.264 25.8906 110.21 25.8906 110.199L25.8128 110.121L25.2677 110.238L25.2288 110.317C25.3066 111.098 25.3456 111.567 25.3456 111.762C25.3066 111.958 25.2677 112.114 25.1898 112.192C25.1509 112.27 24.9952 112.349 24.7616 112.427C24.528 112.505 24.0218 112.622 23.2042 112.778L21.1018 113.169L13.6267 114.459C13.2737 114.513 12.9586 114.549 12.6946 114.579C12.58 114.591 12.475 114.603 12.3808 114.615C12.1083 114.615 11.9136 114.576 11.7968 114.459C11.7189 114.342 11.6021 114.146 11.5243 113.912C11.4805 113.758 11.4368 113.568 11.3862 113.347C11.3467 113.175 11.3029 112.984 11.2517 112.778L11.1739 112.7L10.6288 112.778L10.5899 112.896C10.8099 114.025 10.9839 114.845 11.0925 115.358C11.1569 115.661 11.1983 115.857 11.2128 115.944L11.2205 115.998L11.2293 116.061C11.2724 116.369 11.3491 116.916 11.4853 117.702Z" fill="#9BBEEE"/>
<path d="M9.77226 96.6394L9.65547 96.7566C9.7553 97.792 9.79824 99.484 9.85723 101.808L9.85732 101.812C9.86732 102.206 9.87779 102.618 9.88906 103.048C9.928 106.018 9.928 108.128 9.88906 109.379L10.0059 109.457C10.512 109.418 11.68 109.34 13.432 109.301L13.5099 109.222V108.714L13.3931 108.636L12.3808 108.519C11.7189 108.48 11.3296 108.402 11.2128 108.363C11.096 108.285 11.0181 107.972 10.9792 107.503C10.9403 107.034 10.9013 106.448 10.9013 105.784L10.8624 104.142C12.6533 104.064 13.6267 104.025 13.7435 104.025L20.1285 103.908L22.4256 103.869C23.2042 103.869 23.7104 103.869 23.944 103.947C24.1776 103.986 24.3333 104.025 24.3722 104.103C24.4501 104.181 24.528 104.338 24.5669 104.572C24.6058 104.768 24.6448 105.236 24.6837 105.901L24.7616 106.018L25.3066 105.979L25.3845 105.901C25.3066 104.064 25.2677 103.048 25.2677 102.814V99.6874L25.1898 99.6093H24.6448L24.6058 99.6874C24.5669 100.469 24.528 100.938 24.489 101.172C24.4501 101.368 24.3722 101.485 24.2944 101.563C24.2165 101.641 24.0608 101.68 23.8272 101.719C23.5546 101.759 23.0485 101.798 22.2309 101.798L20.0896 101.876L13.7045 101.993C13.6262 101.993 13.4931 101.99 13.3035 101.985C12.8336 101.974 12.0161 101.954 10.8235 101.954L10.7845 99.8828C10.7845 99.3748 10.7845 98.9449 10.8235 98.5542C10.8624 98.1243 10.9013 97.8898 10.9403 97.8117C11.0181 97.7335 11.096 97.6945 11.2128 97.6554C11.2969 97.6272 11.5023 97.5991 11.8144 97.5563L11.8148 97.5563L11.8205 97.5555C11.9401 97.5391 12.0752 97.5205 12.2251 97.4991L13.1984 97.3818L13.3152 97.2646V96.7566L13.1984 96.6784C11.5632 96.7175 10.4341 96.7175 9.77226 96.6394Z" fill="#9BBEEE"/>
<path d="M9.42187 92.458L9.49973 92.5362L10.0448 92.6534L10.1227 92.5753C10.1547 92.4529 10.1847 92.338 10.2127 92.2305L10.2145 92.2236C10.3555 91.6827 10.4472 91.331 10.512 91.1685C10.5899 91.0122 10.7067 90.8949 10.7845 90.8168C10.8624 90.7777 11.0571 90.7386 11.2907 90.7777C11.5243 90.7777 12.0693 90.8559 12.8869 91.0122L14.9893 91.4029L19.1162 92.1845C20.2453 92.419 21.0629 92.5362 21.6469 92.6144C22.192 92.6534 22.6981 92.6144 23.1264 92.4971C23.5936 92.3799 24.0218 92.1454 24.489 91.7546C24.9173 91.4029 25.3456 90.8559 25.7349 90.1134C26.0853 89.41 26.3578 88.5503 26.5525 87.5342C26.7082 86.7527 26.7861 85.9711 26.7472 85.1896C26.7082 84.408 26.5914 83.7437 26.3578 83.1966C26.1242 82.6886 25.8128 82.1806 25.3845 81.7507C24.9562 81.3209 24.3722 80.9692 23.6714 80.7347C22.9317 80.4612 21.9194 80.2267 20.5957 79.9922L17.3253 79.3279L14.9115 78.859C14.133 78.6636 13.6656 78.5463 13.5099 78.4682C13.3541 78.4291 13.2373 78.351 13.1984 78.2337C13.1205 78.1165 13.0816 77.9993 13.0816 77.7648C13.0816 77.5694 13.1595 77.1005 13.2763 76.4361L13.1984 76.3189L12.6923 76.2408L12.5755 76.3189L12.5613 76.4218C12.4126 77.5043 12.2994 78.3286 12.1861 78.859C12.0693 79.4842 11.8747 80.3439 11.6021 81.36L11.68 81.4772L12.1861 81.5944L12.3029 81.5163C12.4587 80.6956 12.6144 80.1876 12.7312 80.0313C12.8091 79.8359 12.9648 79.7578 13.1205 79.7187C13.2763 79.6796 13.8603 79.7187 14.8336 79.9141C15.8069 80.0704 16.5856 80.2267 17.1306 80.3439L20.44 80.9692C21.6469 81.2036 22.5813 81.4381 23.2432 81.6726C23.905 81.907 24.4112 82.2587 24.7616 82.6886C25.073 83.1185 25.3066 83.7046 25.3845 84.4471C25.4624 85.1505 25.4234 85.9321 25.3066 86.7136C25.1509 87.4561 24.9173 88.0813 24.6448 88.6284C24.3722 89.1755 24.0608 89.6054 23.7493 89.8789C23.4378 90.1134 23.0874 90.3088 22.6981 90.3869C22.2698 90.4651 21.8416 90.4651 21.2965 90.426C20.8515 90.3941 20.225 90.2841 19.3956 90.1384L19.3898 90.1374C19.2049 90.105 19.01 90.0707 18.8048 90.0352L15.3786 89.3709L12.9259 88.8629L12.7952 88.8348C12.3179 88.7326 11.9692 88.6579 11.7189 88.5503C11.4464 88.4721 11.2517 88.3549 11.2128 88.1986C11.1349 88.0813 11.1349 87.8859 11.1739 87.6124C11.1739 87.4058 11.2183 87.1322 11.2736 86.7918L11.2738 86.7907C11.2916 86.6808 11.3106 86.5639 11.3296 86.4401L11.2517 86.3619L10.7067 86.2447L10.6288 86.3228C10.3848 87.731 10.2364 88.6835 10.1648 89.1428C10.145 89.2697 10.1311 89.3592 10.1227 89.41C10.0837 89.6835 9.85013 90.6995 9.42187 92.458Z" fill="#9BBEEE"/>
<path d="M18.8048 60.5706L18.688 60.6487C18.2986 61.782 17.52 63.7359 16.3909 66.5495C15.3008 69.2458 14.4443 71.1997 13.9381 72.333L13.9771 72.4893C14.4832 72.6456 15.5733 73.0364 17.2085 73.6616L17.3253 73.6226L17.52 73.1536L17.4421 73.0364L16.5856 72.5675C15.9626 72.2548 15.6512 72.0204 15.5733 71.9031C15.4565 71.7859 15.4954 71.5124 15.6512 71.0434C15.7671 70.6943 15.9262 70.3019 16.0964 69.8822C16.1547 69.7383 16.2144 69.591 16.2741 69.4412L16.897 67.9172C18.5712 68.5424 19.4666 68.8551 19.5834 68.8941L25.5013 71.2779L27.6426 72.1767C28.3434 72.4502 28.8106 72.6847 29.0053 72.8019C29.1999 72.9192 29.3167 73.0364 29.3167 73.1536C29.3557 73.2318 29.3557 73.3881 29.3167 73.6226C29.2778 73.857 29.161 74.2869 28.9274 74.9121V75.0294L29.4335 75.2247L29.5503 75.1857C30.2122 73.4662 30.5626 72.4893 30.6405 72.2548C30.6708 72.1787 30.7545 71.9896 30.889 71.6854L30.8894 71.6846L30.8896 71.6841C31.1002 71.2079 31.4354 70.4503 31.8863 69.4022L31.8474 69.324L31.3413 69.0895L31.2634 69.1286C30.9519 69.8711 30.7183 70.3009 30.6015 70.4573C30.4847 70.6136 30.3679 70.7308 30.2511 70.7699C30.1733 70.7699 29.9786 70.7699 29.745 70.7308C29.6421 70.6964 29.4864 70.6392 29.2778 70.5627C29.0128 70.4654 28.6624 70.3368 28.2266 70.1837L26.241 69.4022L20.3232 67.0184C20.1998 66.9565 19.9029 66.8293 19.4266 66.6252L19.426 66.6249L19.4256 66.6248C18.9998 66.4423 18.4309 66.1985 17.7146 65.8852L18.4933 63.9703C18.5857 63.7478 18.6781 63.5428 18.7663 63.3471L18.7665 63.3467C18.8641 63.1303 18.9566 62.9249 19.0384 62.7199C19.233 62.3682 19.3498 62.1728 19.4277 62.1337C19.5056 62.0946 19.6224 62.0555 19.7392 62.0946C19.856 62.0946 20.2064 62.1728 20.7125 62.3291L21.6858 62.6026L21.8026 62.5635L21.9973 62.0555L21.9584 61.9383C20.44 61.3521 19.3888 60.8832 18.8048 60.5706Z" fill="#9BBEEE"/>
<path d="M32.1978 41.0317L32.0421 41.0708C31.4461 41.9016 30.3995 43.213 28.9502 45.0289L28.9438 45.037C28.691 45.3538 28.4258 45.686 28.1487 46.0337C26.28 48.3002 24.9173 49.9414 24.0608 50.8793L24.0997 50.9965C24.528 51.3092 25.4624 52.0126 26.825 53.0677H26.9418L27.2533 52.6769V52.5596L26.5525 51.8172C26.0464 51.3482 25.8128 51.0747 25.7738 50.9184C25.696 50.8011 25.8128 50.5276 26.1242 50.1368C26.3968 49.746 26.7472 49.2771 27.1754 48.7691L28.1877 47.4795C29.6282 48.5737 30.4069 49.1599 30.4847 49.199L35.4293 53.224L37.2202 54.6698C37.8431 55.1779 38.1935 55.4905 38.3493 55.6859C38.505 55.8813 38.5829 55.9985 38.5829 56.1157C38.5829 56.233 38.5439 56.3502 38.4271 56.5847C38.3103 56.78 38.0767 57.1317 37.6485 57.6788V57.7961L38.0767 58.1478L38.1935 58.1087C38.9074 57.1945 39.419 56.5302 39.738 56.116C39.9235 55.8751 40.044 55.7186 40.1012 55.6468C40.1597 55.5686 40.3641 55.3341 40.7048 54.9433C41.0455 54.5525 41.5224 54.0054 42.1258 53.3021V53.1849L41.6975 52.8332H41.5807C41.0746 53.4194 40.7242 53.8101 40.5684 53.9274C40.4127 54.0446 40.257 54.0837 40.1402 54.0837C40.0623 54.0837 39.9066 54.0446 39.673 53.9274C39.5757 53.8493 39.4201 53.7321 39.2062 53.5711L39.2059 53.5708C38.9917 53.4096 38.7192 53.2045 38.3882 52.9504L36.7141 51.6218L31.7695 47.6358C31.5749 47.4795 30.8351 46.8543 29.5893 45.7601L30.913 44.1579C30.9967 44.0634 31.0776 43.9689 31.1572 43.8759C31.3737 43.623 31.5808 43.3809 31.8085 43.181C32.081 42.8684 32.2757 42.712 32.3535 42.712C32.4314 42.673 32.5482 42.712 32.665 42.7511C32.7818 42.7902 33.0543 42.9465 33.5215 43.2591L34.3781 43.8062H34.4949L34.8063 43.3764V43.2591C33.5215 42.2431 32.665 41.5006 32.1978 41.0317Z" fill="#9BBEEE"/>
<path d="M34.4559 38.3744V38.4916L34.8063 38.8824H34.9231L35.585 38.3744C35.7797 38.2181 35.9354 38.1399 36.0522 38.1009L36.0684 38.0954C36.08 38.0914 36.0912 38.0875 36.102 38.0836C36.1922 38.0519 36.2585 38.0285 36.3247 38.0618C36.4026 38.0618 36.4805 38.1009 36.6362 38.179C36.753 38.2572 36.9477 38.4135 37.1813 38.648C37.4149 38.8824 37.7263 39.195 38.0767 39.5858L39.7898 41.4225L42.5151 44.3142C42.9823 44.7832 43.6052 45.4866 44.3839 46.4244C45.2015 47.3232 45.5908 47.8312 45.5908 47.9094C45.5908 47.9875 45.513 48.2611 45.3183 48.6909L45.3572 48.8473L45.5908 49.1208H45.7076C46.2138 48.5737 46.7199 48.0657 47.226 47.5968L49.4452 45.5647C50.9859 44.1288 52.2846 42.9704 53.3089 42.0568L53.4943 41.8914L53.4553 41.7742C53.1049 41.3834 52.6767 40.8754 52.1705 40.2501C51.7034 39.664 51.353 39.195 51.1972 38.9215L51.0804 38.9606L50.6911 39.3123L50.6522 39.4295C50.758 39.5357 50.9277 39.8343 51.1902 40.2963L51.2751 40.4455C51.4524 40.8015 51.5968 41.0748 51.6975 41.2653L51.6978 41.2659L51.6988 41.2679L51.6993 41.2688C51.7524 41.3694 51.7933 41.4467 51.8201 41.5006C51.6255 41.8914 51.3919 42.2822 51.1194 42.5948C50.8079 42.9465 50.0292 43.689 48.7055 44.9004L47.226 46.2681C46.7199 45.7601 45.9411 44.9784 44.89 43.8453C43.9167 42.7902 43.2548 42.0477 42.8655 41.5788C43.2779 41.1372 43.6321 40.7931 43.9143 40.5189C44.0317 40.4049 44.1367 40.3029 44.2282 40.2111C44.7732 39.7031 45.2404 39.3123 45.5908 39.0387C45.9412 38.7652 46.1748 38.648 46.2916 38.6089C46.4474 38.6089 46.5252 38.6089 46.642 38.687C46.7028 38.7175 46.8585 38.8433 47.109 39.0457C47.1794 39.1025 47.2575 39.1656 47.3428 39.2341L47.849 39.664H47.9658L48.3551 39.3123V39.195L46.642 37.4365C46.3695 37.1435 46.1067 36.8504 45.8439 36.5573C45.5811 36.2642 45.3183 35.9711 45.0458 35.6781H44.929L44.5396 35.9907V36.1079L44.9679 36.655C45.1661 36.8871 45.2803 37.063 45.3579 37.1825C45.3717 37.2039 45.3844 37.2234 45.3962 37.2412C45.4351 37.3584 45.474 37.4756 45.4351 37.5538C45.4351 37.6319 45.2794 37.8664 44.9679 38.2181C44.6564 38.5307 44.2671 38.9215 43.761 39.3904C43.2938 39.8594 42.7487 40.3283 42.1258 40.8363L40.6463 39.195L39.2836 37.7101L38.1546 36.3814C38.7386 35.7171 39.2447 35.2091 39.673 34.8183C39.9844 34.5448 40.4516 34.154 41.0746 33.646C41.7364 33.138 42.2815 32.7863 42.7487 32.63C43.2159 32.9817 43.6442 33.3725 44.0724 33.8023C44.0919 33.8218 44.1114 33.8511 44.1308 33.8804C44.1503 33.9098 44.1698 33.9391 44.1892 33.9586H44.306L44.6954 33.5678V33.4897C43.722 32.3174 43.0602 31.4186 42.7487 30.7933H42.6319C41.3082 32.0829 39.7508 33.5678 37.9989 35.17C37.9514 35.214 37.8982 35.2634 37.8391 35.3183C37.2676 35.8489 36.1496 36.887 34.4559 38.3744Z" fill="#9BBEEE"/>
<path d="M56.0639 26.0649C55.7524 27.1591 55.2073 28.8785 54.3897 31.1841L53.2996 29.1911L52.0927 27.0028C51.8202 26.5339 51.6255 26.1822 51.5476 25.9086C51.4308 25.6351 51.3919 25.4006 51.4697 25.2834C51.5476 25.1661 51.7034 25.0098 51.937 24.8535C52.0636 24.7518 52.2562 24.6335 52.4934 24.4879C52.6206 24.4098 52.7607 24.3238 52.9103 24.2283L52.9492 24.111L52.6767 23.6421H52.5599C51.5264 24.2493 50.7867 24.6763 50.3407 24.9338C50.0979 25.074 49.9421 25.1639 49.8735 25.2052C49.601 25.3615 49.0948 25.6351 48.3162 26.0258L47.0703 26.6511L47.0314 26.7683L47.3039 27.2373L47.4207 27.2763C48.1215 26.9246 48.5498 26.7292 48.7444 26.6511C48.9391 26.612 49.0948 26.612 49.2116 26.6511C49.2895 26.6902 49.4063 26.8074 49.562 27.0028C49.7178 27.1982 49.9903 27.628 50.3796 28.3705L51.4308 30.2072L53.9225 34.623L55.0127 36.655C55.402 37.3193 55.5967 37.7882 55.6745 37.9836C55.7524 38.2181 55.7524 38.3744 55.7135 38.4526C55.7135 38.5698 55.5967 38.687 55.402 38.8433C55.2463 38.9997 54.8569 39.2341 54.2729 39.5858L54.234 39.7031L54.5065 40.172L54.6233 40.2111C55.8648 39.4513 56.6823 38.9751 57.076 38.7459L57.0774 38.745C57.1892 38.6799 57.2666 38.6348 57.3097 38.6089C57.4834 38.5093 57.6888 38.4096 57.9359 38.2897C58.0764 38.2216 58.2305 38.1468 58.3999 38.0618C59.0071 37.7353 59.4573 37.5057 59.7438 37.3597C59.9715 37.2436 60.0957 37.1803 60.1129 37.163L60.1519 37.0458L59.8793 36.5768H59.7625C59.5 36.694 59.2757 36.8001 59.0876 36.8891C58.7736 37.0377 58.5605 37.1386 58.4388 37.163C58.2441 37.2021 58.0884 37.2021 57.9716 37.163C57.8937 37.1239 57.7769 37.0067 57.6212 36.8113C57.4902 36.6798 57.2766 36.3273 56.9573 35.8C56.8969 35.7004 56.8327 35.5944 56.7647 35.4827L55.7524 33.6069L54.6233 31.5749C58.1903 32.4206 60.6428 33.0223 61.981 33.3506L61.9817 33.3507C62.4982 33.4774 62.8486 33.5634 63.0329 33.6069C63.5466 33.7586 64.1306 33.9102 64.7849 34.0801C64.9737 34.1291 65.1684 34.1797 65.3689 34.2322C65.5373 34.1308 65.693 34.0366 65.8359 33.9502C66.3537 33.6372 66.7042 33.4253 66.8873 33.3334C67.2766 33.0989 67.666 32.9035 68.0553 32.7472L68.0942 32.63L67.8606 32.2001L67.7438 32.161C67.3934 32.3564 67.1598 32.4346 67.0041 32.4346C66.9652 32.4248 66.8875 32.4078 66.7709 32.3822L66.7705 32.3821C66.42 32.3051 65.7191 32.1512 64.6681 31.8875L55.9471 29.7382L57.8548 24.072C58.1273 23.2904 58.3609 22.6261 58.5945 22.0399C58.8281 21.4537 59.0228 21.102 59.2175 20.9067C59.3732 20.7113 59.7625 20.4768 60.3465 20.1251L60.3855 20.0079L60.1519 19.578L59.9961 19.5389C59.5117 19.8263 59.1393 20.0386 58.8861 20.183C58.6917 20.2938 58.5674 20.3647 58.5167 20.3986C57.9327 20.7113 57.3876 20.9848 56.8815 21.2193L56.8425 21.3756L57.1929 22.0008C57.1849 22.0331 57.1752 22.0787 57.1628 22.137C57.1152 22.3608 57.0279 22.7713 56.8425 23.3295C56.717 23.8083 56.559 24.3522 56.3792 24.9716L56.3786 24.9737C56.2797 25.314 56.1742 25.6773 56.0639 26.0649Z" fill="#9BBEEE"/>
<path d="M68.8729 32.2001L68.9897 32.2392L69.1747 32.1707C69.8825 31.9085 70.7465 31.5884 71.6761 31.3013C72.4937 31.0278 73.0777 30.8715 73.467 30.7933L73.506 30.6761L73.3502 30.2072L73.2334 30.1681C72.6494 30.3244 72.2601 30.4025 72.0654 30.4416C71.8708 30.4416 71.715 30.4025 71.6372 30.3635C71.5593 30.3244 71.4814 30.2072 71.4036 30.0508C71.3474 29.9382 71.2306 29.6428 71.0532 29.194C70.9844 29.0202 70.9065 28.8232 70.8196 28.605C70.547 27.7843 70.3524 27.2373 70.2356 26.9246L67.627 18.9528L77.555 25.4397L80.6697 27.4326L81.6819 28.0579C82.6163 27.9407 83.2393 27.9016 83.6286 27.9016C83.4729 27.4326 83.3171 26.9735 83.1614 26.5143C83.0057 26.0551 82.8499 25.596 82.6942 25.1271L81.7209 22.2744L80.1246 17.3506C80.0643 17.169 79.9936 16.9353 79.9072 16.6496L79.9067 16.648L79.9065 16.6472C79.8257 16.38 79.7311 16.0674 79.6185 15.7093C79.5085 15.2677 79.4109 14.9258 79.3398 14.6768C79.2851 14.4853 79.2461 14.3484 79.2291 14.2634C79.1902 14.029 79.1902 13.8727 79.2291 13.7554C79.2291 13.6382 79.3849 13.521 79.6185 13.3646C79.8521 13.2474 80.2025 13.1302 80.6697 12.9739L80.7086 12.8566L80.5529 12.3877L80.4361 12.3095C80.3688 12.3341 80.2948 12.3615 80.2142 12.3914C79.7819 12.5518 79.1602 12.7824 78.3726 13.0129C77.3214 13.3646 76.5038 13.5991 75.9587 13.7554L75.8809 13.8727L76.0366 14.3416L76.1534 14.4197C76.3021 14.379 76.4367 14.3383 76.5605 14.3009C76.7933 14.2305 76.9878 14.1717 77.1657 14.1462C77.3993 14.1071 77.5939 14.1462 77.7107 14.1853C77.8275 14.2244 77.9054 14.3416 78.0222 14.5761C78.139 14.7714 78.3337 15.2795 78.6062 16.061L78.6647 16.2151C78.9422 16.9459 79.1173 17.4072 79.1902 17.6632L81.7987 25.6741C80.9811 25.2052 80.1246 24.6972 79.307 24.1501L72.4158 19.6562L67.7049 16.4127C67.2766 16.6081 66.6926 16.8035 65.9918 17.038C65.924 17.0574 65.832 17.0842 65.717 17.1175L65.7152 17.1181C65.3684 17.2188 64.8138 17.38 64.0841 17.585L64.0452 17.7023L64.2009 18.2103L64.3177 18.2494L64.4345 18.2158C64.9187 18.0766 65.2691 17.9758 65.4857 17.9758C65.7193 17.9367 65.914 17.9758 66.1087 18.1321C66.3033 18.2494 66.4201 18.4838 66.5369 18.8355L69.3012 27.1982C69.3396 27.3719 69.4066 27.5932 69.488 27.8623L69.4881 27.8629C69.5715 28.1384 69.6699 28.4641 69.7684 28.8394C69.8918 29.2523 69.9826 29.578 70.0523 29.8279C70.1145 30.0509 70.1599 30.2138 70.1966 30.3244C70.2356 30.5589 70.2356 30.7152 70.1966 30.8324C70.1577 30.9496 70.002 31.0669 69.7684 31.1841C69.5348 31.3013 69.1844 31.4576 68.7561 31.614L68.7172 31.6921L68.8729 32.2001Z" fill="#9BBEEE"/>
<path fill-rule="evenodd" clip-rule="evenodd" d="M86.2761 16.2173C86.0035 17.1943 85.9257 18.2103 86.0035 19.3045C86.0814 20.1251 86.2761 21.063 86.6654 22.079C87.0547 23.095 87.6387 23.9547 88.4174 24.6972C89.1571 25.4006 90.0526 25.9477 91.0648 26.2603C92.116 26.612 93.2062 26.7292 94.4131 26.6511C96.0872 26.5339 97.5667 26.0649 98.8515 25.2443C100.136 24.4237 101.11 23.3295 101.733 21.9618C102.355 20.6331 102.628 19.1091 102.511 17.5069C102.355 15.1622 101.46 13.3646 99.9027 12.1532C98.3454 10.9027 96.3208 10.3557 93.8291 10.512C92.5054 10.6292 91.2984 10.9418 90.2862 11.4498C89.235 11.9578 88.3784 12.6222 87.6777 13.4819C86.9769 14.3416 86.5097 15.2404 86.2761 16.2173ZM88.8846 21.2584C88.4952 20.2423 88.3006 19.3045 88.2227 18.4057C88.067 16.2564 88.4953 14.6151 89.4296 13.4428C90.3641 12.2705 91.7267 11.6061 93.4787 11.4889C94.6856 11.4108 95.7758 11.6061 96.7491 12.0751C97.7614 12.544 98.579 13.3256 99.2019 14.4979C99.7859 15.6312 100.136 16.9207 100.253 18.4057C100.331 19.7343 100.214 20.9848 99.8248 22.079C99.4355 23.2122 98.8126 24.072 97.995 24.619C97.1384 25.2052 96.1651 25.5178 95.036 25.596C94.0627 25.6741 93.2062 25.5569 92.4275 25.2443C91.6488 24.9707 90.948 24.4627 90.3251 23.7593C89.7022 23.095 89.235 22.2353 88.8846 21.2584Z" fill="#9BBEEE"/>
<path d="M106.015 10.7074L105.937 10.7464L105.859 11.2935L105.937 11.4108C106.716 11.528 107.183 11.6061 107.378 11.6843C107.534 11.7625 107.689 11.8406 107.728 11.9188C107.806 12.036 107.845 12.1923 107.845 12.4268C107.845 12.6612 107.806 13.2083 107.689 14.029L107.456 16.1392L106.872 20.7894C106.716 22.0008 106.56 23.095 106.405 23.9547L106.366 24.1697C106.235 24.8926 106.164 25.2868 106.093 25.3224C106.054 25.3615 105.782 25.4788 105.314 25.6741L105.237 25.7523L105.159 26.104L105.237 26.2212C106.015 26.2603 106.755 26.2994 107.495 26.3775L110.648 26.8074C112.906 27.0809 114.697 27.3154 116.06 27.5108L116.177 27.4717C116.216 26.9246 116.333 26.2603 116.488 25.4397C116.563 25.1261 116.626 24.8525 116.679 24.6188C116.766 24.2409 116.829 23.9674 116.878 23.7984L116.839 23.7203L116.294 23.6421L116.177 23.7203C116.177 23.7627 116.131 23.8972 116.058 24.1113L116.058 24.1122L116.057 24.1126C115.996 24.2928 115.915 24.5293 115.826 24.8144C115.666 25.2449 115.523 25.5642 115.425 25.7852C115.38 25.8851 115.345 25.965 115.32 26.0258C114.892 26.1431 114.464 26.1822 113.997 26.1822L113.967 26.1795L113.921 26.1754L113.868 26.1708L113.756 26.1613C113.222 26.1158 112.207 26.0294 110.687 25.8305L108.468 25.5569L108.663 23.6812C108.702 23.2122 108.779 22.3525 108.935 21.1802L109.519 16.3736L109.87 13.9117C109.909 13.3646 109.986 12.9739 110.064 12.7003C110.142 12.3877 110.259 12.2314 110.376 12.1532C110.531 12.1142 110.726 12.0751 110.999 12.0751C111.205 12.0751 111.477 12.0974 111.816 12.1251L111.818 12.1253L111.819 12.1254C111.928 12.1343 112.044 12.1438 112.167 12.1532L112.245 12.0751L112.322 11.528L112.245 11.4498C111.408 11.3784 110.735 11.3151 110.228 11.2675L110.227 11.2674C109.624 11.2108 109.257 11.1763 109.13 11.1763C108.857 11.1372 107.806 10.9809 106.015 10.7074Z" fill="#9BBEEE"/>
<path fill-rule="evenodd" clip-rule="evenodd" d="M122.056 17.9758C121.433 18.7574 120.927 19.6562 120.537 20.6722C120.226 21.4537 120.031 22.3916 119.953 23.4858C119.875 24.5409 120.031 25.596 120.42 26.5729C120.771 27.5499 121.355 28.4096 122.172 29.113C122.951 29.8555 123.924 30.4416 125.015 30.8324C126.572 31.4577 128.129 31.653 129.648 31.4576C131.166 31.2623 132.49 30.6761 133.658 29.6991C134.787 28.7613 135.643 27.5108 136.227 25.9868C137.084 23.7984 137.045 21.8054 136.15 20.0079C135.293 18.2494 133.658 16.9207 131.361 16.0219C130.076 15.553 128.908 15.3185 127.74 15.3576C126.572 15.3576 125.521 15.6312 124.508 16.1001C123.535 16.569 122.718 17.1943 122.056 17.9758ZM122.289 23.6421C122.406 22.587 122.601 21.6491 122.912 20.7894C123.691 18.7965 124.742 17.4678 126.105 16.8035C127.467 16.1001 128.986 16.1001 130.621 16.7253C131.75 17.1552 132.646 17.7804 133.346 18.6401C134.047 19.4999 134.436 20.555 134.514 21.8445C134.592 23.1341 134.359 24.4627 133.814 25.8305C133.346 27.12 132.684 28.1751 131.867 28.9957C131.049 29.8555 130.115 30.3635 129.103 30.5198C128.09 30.7152 127.078 30.5979 126.027 30.1681C125.131 29.8555 124.392 29.3865 123.808 28.7613C123.263 28.1751 122.834 27.4326 122.562 26.5339C122.289 25.6741 122.211 24.6972 122.289 23.6421Z" fill="#9BBEEE"/>
<path d="M150.749 37.8664L150.905 37.5929L150.866 37.4365C150.582 37.278 150.33 37.1324 150.104 37.0022L150.101 37.0005L150.101 37.0001C149.772 36.8103 149.501 36.6535 149.27 36.5378C148.686 36.147 147.907 35.639 146.934 35.0137L146.389 34.623L146.233 34.662L146 35.0919L146.039 35.2091C146.817 35.7171 147.323 36.0688 147.557 36.3033C147.752 36.4987 147.868 36.655 147.868 36.8113C147.829 37.0067 147.674 37.3193 147.362 37.7882L146.739 38.8043C146.35 39.4295 146.077 39.8203 145.883 39.9766C145.416 39.9375 144.909 39.8203 144.287 39.5858C143.703 39.3514 143.158 39.0778 142.651 38.7652C141.444 38.0227 140.588 37.0848 140.043 35.9907C139.498 34.8965 139.303 33.6851 139.42 32.4346C139.576 31.145 139.965 29.9336 140.705 28.8004C141.367 27.7062 142.223 26.8465 143.235 26.2212C144.248 25.6351 145.338 25.3224 146.506 25.4006C147.674 25.4788 148.803 25.8695 149.932 26.5729C150.477 26.9246 150.944 27.2763 151.372 27.6671C151.762 28.0188 152.151 28.4487 152.463 28.9176C152.813 29.4256 153.008 29.7382 153.085 29.8945C153.091 29.9147 153.096 29.9343 153.1 29.9532C153.133 30.0805 153.158 30.1782 153.124 30.2462C153.124 30.3026 153.064 30.4198 152.971 30.598C152.936 30.667 152.895 30.7451 152.852 30.8324L152.268 31.8484L152.307 31.9657L152.735 32.2392L152.852 32.2001C153.825 30.9887 154.487 30.2072 154.876 29.8555V29.6991C153.864 28.2923 152.463 27.0028 150.749 25.9477C148.375 24.4627 146.077 23.9156 143.819 24.2673C141.561 24.58 139.77 25.8305 138.447 27.9797C137.551 29.3865 137.123 30.7933 137.123 32.2001C137.162 33.6069 137.551 34.9356 138.33 36.147C139.108 37.3584 140.199 38.3744 141.561 39.2341C143.352 40.3283 145.299 41.1099 147.401 41.5006L147.518 41.4616C147.829 40.7972 148.18 40.172 148.491 39.664C148.803 39.156 149.075 38.7652 149.309 38.4526C149.543 38.1399 149.698 37.9836 149.737 37.9446C149.75 37.9446 149.768 37.9402 149.791 37.9344C149.837 37.9228 149.906 37.9055 150.01 37.9055L150.633 37.9446L150.749 37.8664Z" fill="#9BBEEE"/>
<path d="M160.055 33.4897L159.081 32.5127H158.964L158.575 32.9035V33.0208C159.12 33.5678 159.471 33.9195 159.587 34.1149C159.597 34.1334 159.606 34.1513 159.615 34.1687C159.622 34.1821 159.629 34.1952 159.635 34.2081C159.694 34.3202 159.743 34.413 159.743 34.5057C159.743 34.6229 159.665 34.7793 159.509 34.9747C159.393 35.17 159.042 35.5608 158.458 36.1861L157.018 37.7492L153.553 41.4225L151.995 43.1028C151.45 43.689 151.061 44.0407 150.905 44.1579C150.711 44.2752 150.555 44.3533 150.438 44.3533C150.36 44.3533 150.204 44.2752 150.01 44.1579C149.815 44.0407 149.465 43.7671 148.92 43.3373L148.842 43.2982L148.452 43.7281V43.8453C149.22 44.5086 149.801 45.0196 150.201 45.3719L150.201 45.3724C150.532 45.6632 150.739 45.8457 150.827 45.9164C150.909 45.9988 151.012 46.0951 151.13 46.2053L151.131 46.2061L151.133 46.2077L151.133 46.2081L151.134 46.2094C151.295 46.3596 151.483 46.5356 151.684 46.7371L153.047 48.1048H153.163L153.553 47.714L153.514 47.5968C152.969 47.0497 152.657 46.698 152.54 46.5026C152.424 46.3463 152.385 46.19 152.385 46.0727C152.385 45.9946 152.463 45.8383 152.618 45.6429C152.735 45.4475 153.085 45.0176 153.631 44.4315L155.11 42.8684L158.536 39.156L160.288 37.3584C160.639 36.9676 160.95 36.6941 161.184 36.4987C161.417 36.3033 161.573 36.2251 161.729 36.2642C161.884 36.2642 162.079 36.3814 162.274 36.5378C162.507 36.6941 162.819 36.9676 163.169 37.2802H163.286L163.675 36.8895V36.7722C162.908 36.1086 162.327 35.5974 161.926 35.2452L161.926 35.2448L161.925 35.2442L161.925 35.2437C161.595 34.9537 161.388 34.7717 161.3 34.7011C161.231 34.631 161.131 34.5358 161.003 34.4137L161.002 34.4133L161.001 34.412C160.772 34.1937 160.453 33.8897 160.055 33.4897Z" fill="#9BBEEE"/>
<path fill-rule="evenodd" clip-rule="evenodd" d="M169.36 44.2751V44.3923L169.788 45.0957C169.905 45.3302 169.982 45.4865 170.021 45.6037C170.06 45.6819 170.06 45.7991 170.06 45.8773C170.021 45.9554 169.982 46.0336 169.866 46.1508C169.788 46.268 169.593 46.4243 169.321 46.6197C169.184 46.737 169.029 46.8542 168.853 46.9861C168.678 47.118 168.484 47.2645 168.269 47.4404L166.245 48.8862L163.013 51.2309C162.681 51.4877 162.231 51.7951 161.674 52.1753C161.383 52.3737 161.063 52.5919 160.716 52.8331C159.704 53.4974 159.159 53.8491 159.042 53.81C158.964 53.81 158.692 53.6928 158.303 53.4583H158.147L157.874 53.6537L157.835 53.81C158.244 54.2517 158.551 54.6425 158.818 54.9823C158.882 55.0634 158.943 55.1416 159.003 55.2168C159.028 55.2671 159.166 55.4624 159.406 55.803L159.407 55.8044C159.54 55.9936 159.704 56.2278 159.899 56.5064C160.366 57.2489 160.677 57.6787 160.794 57.796C161.3 58.4994 161.768 59.0465 162.235 59.3982C162.702 59.7889 163.247 60.1016 163.831 60.336C164.454 60.6096 165.038 60.7268 165.661 60.7659C166.284 60.805 166.829 60.7268 167.335 60.5705C167.802 60.3751 168.231 60.1797 168.62 59.9062C169.126 59.5545 169.476 59.1246 169.71 58.6948C169.982 58.2649 170.099 57.796 170.099 57.327C170.138 56.8581 170.06 56.3892 169.866 55.8812C169.671 55.4122 169.36 54.8261 168.97 54.1227C169.982 55.0215 170.956 55.4904 171.851 55.5685C172.747 55.6076 173.525 55.4122 174.187 54.9433C174.693 54.5525 175.044 54.0836 175.238 53.5365C175.433 52.9503 175.472 52.3642 175.277 51.778C175.122 51.1918 174.732 50.5275 174.148 49.746C173.993 49.5116 173.759 49.199 173.409 48.7303L173.409 48.7299L173.408 48.7294C172.318 47.362 171.696 46.5806 171.54 46.3462C171.15 45.7991 170.605 45.0175 169.905 43.9624H169.788L169.36 44.2751ZM167.161 51.1426C167.114 51.066 167.069 50.9911 167.024 50.9183L168.62 49.746L168.706 49.6849C169.984 48.7792 170.891 48.1369 171.462 47.8311C171.851 48.1828 172.241 48.6127 172.63 49.1989C173.136 49.8632 173.409 50.4494 173.564 50.9574C173.681 51.4654 173.642 51.9343 173.448 52.3251C173.292 52.7159 172.98 53.1066 172.513 53.4193C171.773 53.9664 170.995 54.1617 170.216 54.0054C169.437 53.8491 168.581 53.1457 167.685 51.9343C167.476 51.6646 167.313 51.3947 167.161 51.1426ZM161.417 57.0926C161.067 56.6236 160.794 56.1156 160.561 55.6076L163.247 53.6147L166.284 51.4263C166.436 51.6442 166.588 51.8257 166.726 51.991C166.836 52.1222 166.937 52.2432 167.024 52.3642C168.153 53.9664 168.659 55.1778 168.503 56.0375C168.347 56.8972 167.841 57.6006 166.985 58.2258C166.44 58.6557 165.817 58.8902 165.155 59.0465C164.532 59.1637 163.909 59.0855 163.286 58.7729C162.663 58.4994 162.04 57.9523 161.417 57.0926Z" fill="#9BBEEE"/>
<path fill-rule="evenodd" clip-rule="evenodd" d="M165.622 64.0093L165.583 64.1266C165.933 64.869 166.284 65.6115 166.556 66.354C166.829 66.9792 167.14 67.7608 167.413 68.6596L167.53 68.6987L168.075 68.5033L168.114 68.347C167.802 67.6436 167.685 67.1356 167.685 66.9402C167.685 66.7057 167.763 66.5885 167.958 66.5103C168.153 66.4322 168.542 66.3931 169.087 66.3931L172.124 66.4322L174.499 72.2938L171.929 74.7948C171.696 74.9902 171.54 75.1074 171.384 75.1856C171.189 75.2247 171.034 75.1856 170.917 75.0293C170.8 74.873 170.566 74.404 170.255 73.6615L170.138 73.5834L169.593 73.8179L169.554 73.9351C169.879 74.6368 170.187 75.3386 170.501 76.0506L170.501 76.0514C170.676 76.4493 170.852 76.8505 171.034 77.2567C171.229 77.7151 171.398 78.2558 171.585 78.8558C171.621 78.9719 171.658 79.0902 171.696 79.2106L171.812 79.2497L172.357 79.0543L172.396 78.937L172.363 78.8448C172.224 78.4626 172.124 78.186 172.124 78.0773C172.124 77.9211 172.163 77.8038 172.202 77.6866C172.241 77.5694 172.435 77.2958 172.825 76.905C173.175 76.5142 173.525 76.1234 173.837 75.8108L174.966 74.6776L183.414 66.2758L183.142 65.6115C182.422 65.6115 181.701 65.6018 180.981 65.592L180.98 65.592C180.26 65.5822 179.54 65.5724 178.82 65.5724L171.462 65.338L168.737 65.1817C167.841 65.1426 167.335 65.1035 167.14 65.0254C166.985 64.9863 166.829 64.9081 166.751 64.7518C166.634 64.6346 166.479 64.322 166.284 63.853L166.167 63.7749L165.622 64.0093ZM175.238 71.5513L173.136 66.4322L180.339 66.5494L175.238 71.5513Z" fill="#9BBEEE"/>
<path d="M172.28 80.5392L172.202 80.6565C172.357 81.4771 172.513 82.415 172.669 83.4701C172.786 84.2907 172.825 84.9159 172.825 85.3067L172.941 85.3849L173.448 85.3067L173.525 85.1895C173.448 84.6033 173.409 84.2125 173.448 84.0172C173.486 83.8218 173.525 83.6655 173.603 83.5873C173.642 83.5482 173.759 83.4701 173.954 83.431C174.109 83.3528 174.616 83.2356 175.472 83.1184C175.87 83.0458 176.209 82.99 176.493 82.9433L176.494 82.9432L176.494 82.9431L176.495 82.943C176.822 82.8893 177.076 82.8475 177.263 82.8057L185.556 81.6725L177.419 90.2696L174.927 92.966L174.109 93.8257C174.077 94.6093 174.017 95.1746 173.976 95.5673C173.968 95.6447 173.96 95.7153 173.954 95.7796L176.874 95.3106L179.833 94.8808L185.011 94.1774C185.117 94.1655 185.242 94.15 185.386 94.132L185.387 94.1319C185.718 94.0907 186.155 94.0363 186.724 93.982C186.958 93.9585 187.167 93.9386 187.351 93.9211L187.358 93.9204L187.363 93.9199C187.784 93.8798 188.068 93.8528 188.203 93.8257C188.437 93.8257 188.593 93.8647 188.709 93.9038C188.826 93.9429 188.943 94.0992 189.021 94.3728C189.099 94.6072 189.177 94.9589 189.254 95.4669L189.332 95.506L189.838 95.4669L189.916 95.3497C189.849 94.9756 189.751 94.3646 189.624 93.5683L189.566 93.2004C189.469 92.5174 189.402 91.9409 189.346 91.4615L189.346 91.4577L189.345 91.4544L189.345 91.454L189.345 91.4511L189.345 91.449L189.345 91.4483C189.312 91.1653 189.283 90.9163 189.254 90.6994L189.177 90.6213L188.67 90.6994L188.593 90.8167L188.606 90.9467L188.606 90.9472C188.64 91.2857 188.67 91.59 188.67 91.8327C188.67 92.0672 188.632 92.2626 188.554 92.3407C188.476 92.4579 188.359 92.5361 188.125 92.6143C188.009 92.6338 187.814 92.6729 187.546 92.7266L187.545 92.7269L187.543 92.7273C187.276 92.781 186.936 92.8491 186.529 92.9269C185.673 93.0832 185.128 93.1613 184.855 93.2004L176.484 94.3728C176.929 93.8068 177.42 93.2636 177.921 92.7085L178.194 92.4055L178.268 92.3236L178.341 92.2411L178.392 92.1844L184.076 86.2446L188.086 82.1805C187.97 81.7116 187.853 81.1254 187.775 80.3829C187.727 80.1897 187.694 79.8621 187.648 79.4094L187.647 79.4079L187.647 79.4052L187.647 79.4001C187.618 79.1224 187.585 78.798 187.541 78.429L187.425 78.3509L186.918 78.429L186.841 78.5072C186.918 79.0543 186.957 79.4841 186.918 79.7186C186.918 79.9531 186.841 80.1485 186.685 80.3048C186.529 80.4611 186.257 80.5392 185.867 80.6174L177.107 81.8288L176.951 81.8486C176.618 81.8911 176.096 81.9576 175.433 82.0242C175.081 82.0579 174.786 82.0916 174.546 82.119C174.23 82.1552 174.009 82.1805 173.876 82.1805C173.681 82.1805 173.486 82.1414 173.37 82.1023C173.292 82.0242 173.175 81.8679 173.097 81.5943C173.019 81.3599 172.941 81.0082 172.864 80.5783L172.786 80.5002L172.28 80.5392Z" fill="#9BBEEE"/>
<path fill-rule="evenodd" clip-rule="evenodd" d="M190.072 99.7264L189.994 99.6483L189.449 99.6092L189.371 99.6873L189.254 100.508C189.209 100.645 189.177 100.769 189.15 100.872C189.131 100.944 189.115 101.007 189.099 101.055C189.06 101.133 188.982 101.211 188.943 101.25C188.865 101.29 188.748 101.329 188.632 101.368C188.569 101.368 188.494 101.374 188.405 101.381C188.27 101.393 188.102 101.407 187.892 101.407C187.697 101.385 187.478 101.375 187.228 101.364C187.029 101.356 186.81 101.346 186.568 101.329L184.076 101.172L180.066 100.86C179.443 100.821 178.509 100.742 177.302 100.625C176.056 100.508 175.433 100.391 175.394 100.352C175.375 100.313 175.336 100.225 175.278 100.094L175.223 99.9711C175.174 99.8588 175.114 99.7246 175.044 99.5701L174.927 99.492L174.577 99.4529L174.46 99.531C174.499 100.234 174.46 100.86 174.421 101.368C174.421 101.464 174.406 101.635 174.385 101.872L174.385 101.874C174.373 102.02 174.358 102.19 174.343 102.384C174.187 103.947 174.109 105.002 174.07 105.588C173.993 106.409 174.032 107.229 174.109 108.05C174.226 108.871 174.46 109.691 174.888 110.512C175.277 111.372 175.861 112.114 176.562 112.817C177.302 113.482 178.12 114.029 179.054 114.42C179.988 114.85 180.962 115.084 181.935 115.162C182.947 115.201 183.921 115.084 184.816 114.771C185.75 114.459 186.568 113.99 187.308 113.286C188.009 112.622 188.554 111.841 188.865 110.942C189.215 110.004 189.449 108.832 189.527 107.386L189.799 102.306C189.838 101.837 189.916 100.977 190.072 99.7264ZM175.044 105.197C175.122 104.259 175.238 103.4 175.433 102.657C176.523 102.696 177.341 102.735 177.964 102.774L181.195 102.97L184.621 103.204C186.14 103.322 187.464 103.439 188.67 103.595C188.748 104.494 188.748 105.432 188.67 106.409C188.515 108.753 187.814 110.434 186.607 111.45C185.4 112.466 183.765 112.935 181.701 112.778C180.3 112.661 179.054 112.349 178.003 111.762C176.913 111.176 176.134 110.356 175.628 109.34C175.122 108.284 174.927 106.917 175.044 105.197Z" fill="#9BBEEE"/>
<path d="M187.775 120.789L187.697 120.711L187.191 120.516L187.074 120.594C186.841 121.336 186.646 121.766 186.529 121.923C186.412 122.118 186.334 122.196 186.218 122.235C186.14 122.274 185.945 122.274 185.712 122.235C185.478 122.196 184.972 122.079 184.154 121.805L182.13 121.18L178.12 119.891C177.029 119.539 176.212 119.304 175.667 119.187C175.122 119.07 174.616 119.031 174.148 119.109C173.72 119.148 173.253 119.343 172.747 119.656C172.241 119.969 171.773 120.477 171.306 121.141C170.839 121.805 170.489 122.626 170.177 123.603C169.905 124.384 169.749 125.127 169.671 125.909C169.632 126.69 169.671 127.354 169.827 127.941C169.982 128.488 170.255 128.996 170.605 129.504C170.995 129.973 171.501 130.402 172.202 130.715C172.902 131.067 173.876 131.418 175.161 131.848L178.314 132.864L180.65 133.646C180.851 133.72 181.032 133.786 181.191 133.844L181.191 133.844C181.618 133.999 181.889 134.097 181.974 134.154L181.995 134.17L182.016 134.186C182.151 134.286 182.25 134.36 182.285 134.467C182.324 134.584 182.363 134.74 182.324 134.935C182.285 135.131 182.169 135.561 181.974 136.225L182.052 136.342L182.558 136.499L182.675 136.46C182.947 135.326 183.181 134.506 183.376 133.959C183.535 133.446 183.773 132.829 184.068 132.065C184.133 131.896 184.201 131.72 184.271 131.536L184.193 131.418L183.687 131.262L183.57 131.34C183.298 132.122 183.103 132.591 182.986 132.747C182.869 132.903 182.714 132.982 182.558 133.021C182.363 133.021 181.818 132.903 180.884 132.591C179.91 132.317 179.171 132.083 178.626 131.887L175.433 130.871C174.265 130.481 173.37 130.129 172.747 129.816C172.124 129.504 171.657 129.113 171.384 128.644C171.073 128.136 170.917 127.55 170.956 126.807C170.956 126.104 171.073 125.361 171.306 124.58C171.54 123.876 171.851 123.251 172.202 122.743C172.513 122.235 172.864 121.844 173.214 121.649C173.603 121.415 173.954 121.297 174.343 121.258C174.771 121.219 175.238 121.258 175.745 121.375C176.251 121.493 177.068 121.727 178.158 122.079L181.468 123.173L183.882 123.955C184.349 124.111 184.738 124.267 185.011 124.384C185.283 124.502 185.439 124.658 185.478 124.775C185.517 124.932 185.517 125.127 185.439 125.401C185.412 125.591 185.347 125.839 185.271 126.13C185.237 126.256 185.202 126.392 185.166 126.534L185.205 126.651L185.712 126.807L185.828 126.768C186.334 124.971 186.646 123.994 186.724 123.759C186.802 123.486 187.152 122.509 187.775 120.789Z" fill="#9BBEEE"/>
<path d="M167.413 132.708L167.296 132.747C166.907 133.451 166.44 134.271 165.856 135.209C165.388 135.912 165.038 136.42 164.804 136.694L164.843 136.85L165.272 137.124L165.388 137.085C165.632 136.687 165.852 136.409 165.992 136.232C166.016 136.202 166.037 136.176 166.056 136.152L166.06 136.146L166.075 136.127L166.089 136.108C166.245 135.991 166.401 135.912 166.479 135.912C166.556 135.873 166.712 135.912 166.868 135.991C167.02 136.021 167.314 136.194 167.787 136.473L167.788 136.474L167.788 136.474C167.921 136.552 168.068 136.639 168.23 136.733C168.785 137.039 169.201 137.285 169.493 137.458L169.493 137.459L169.608 137.527L169.664 137.56C169.71 137.587 169.751 137.611 169.788 137.632L176.913 142.087L165.116 143.454L161.456 143.923L160.288 144.08L160.287 144.081C159.626 144.744 159.159 145.213 158.887 145.447C159.315 145.701 159.733 145.955 160.152 146.209C160.57 146.463 160.989 146.717 161.417 146.971L163.987 148.535L168.386 151.27C168.57 151.385 168.808 151.542 169.109 151.739L169.113 151.741L169.119 151.745C169.325 151.88 169.56 152.035 169.827 152.208C170.206 152.476 170.508 152.681 170.727 152.829L170.727 152.829C170.89 152.939 171.006 153.017 171.073 153.068C171.228 153.224 171.345 153.341 171.384 153.458C171.462 153.576 171.423 153.771 171.345 154.005C171.328 154.039 171.311 154.075 171.293 154.113L171.291 154.117L171.29 154.117L171.288 154.122L171.287 154.123C171.177 154.35 171.03 154.652 170.8 154.982L170.839 155.1L171.267 155.373L171.423 155.334C171.618 154.943 171.968 154.318 172.513 153.458C173.097 152.56 173.564 151.856 173.915 151.348L173.876 151.231L173.448 150.957L173.331 150.996C173.141 151.283 172.95 151.517 172.802 151.7C172.768 151.742 172.737 151.781 172.708 151.817C172.552 152.012 172.396 152.13 172.28 152.169C172.163 152.208 172.007 152.169 171.773 152.091C171.589 152.017 171.161 151.768 170.489 151.377L170.372 151.309C169.776 150.963 169.332 150.693 169.08 150.539L169.078 150.539C169.018 150.502 168.969 150.472 168.931 150.449L161.729 145.994C162.663 145.799 163.636 145.643 164.61 145.565L172.786 144.627L178.509 144.041C178.704 143.65 179.015 143.103 179.404 142.477C179.475 142.353 179.594 142.181 179.754 141.949C179.946 141.67 180.197 141.305 180.494 140.836L180.456 140.719L180.027 140.445L179.91 140.485C179.599 140.953 179.365 141.266 179.21 141.422C179.054 141.618 178.859 141.696 178.626 141.735C178.392 141.735 178.12 141.657 177.808 141.461L170.333 136.811C170.149 136.696 169.911 136.54 169.61 136.342L169.607 136.34C169.4 136.204 169.162 136.049 168.892 135.873C168.68 135.723 168.492 135.593 168.329 135.48C167.984 135.241 167.752 135.081 167.646 134.975C167.452 134.857 167.335 134.701 167.296 134.584C167.257 134.467 167.257 134.31 167.374 134.037C167.491 133.802 167.646 133.49 167.88 133.099L167.841 132.982L167.413 132.708Z" fill="#9BBEEE"/>
<path d="M149.737 163.071L149.776 163.189L150.01 163.423L150.165 163.384C150.711 162.798 151.139 162.368 151.45 162.095C151.956 161.587 152.618 160.961 153.475 160.18L153.981 159.75V159.594L153.631 159.242H153.514C152.813 159.906 152.346 160.297 152.073 160.453C151.84 160.61 151.645 160.688 151.489 160.649C151.333 160.57 151.061 160.336 150.672 159.945L149.815 159.046C149.309 158.538 149.036 158.187 148.92 157.991C149.036 157.562 149.309 157.053 149.698 156.545C150.049 155.998 150.438 155.529 150.866 155.139C151.879 154.162 153.008 153.536 154.215 153.302C155.421 153.028 156.628 153.107 157.835 153.576C159.042 154.005 160.093 154.709 161.028 155.647C161.923 156.585 162.585 157.601 162.936 158.734C163.286 159.867 163.286 160.961 162.936 162.095C162.585 163.189 161.923 164.205 160.989 165.143C160.522 165.572 160.055 165.924 159.587 166.237C159.12 166.549 158.614 166.784 158.069 167.018C157.524 167.214 157.173 167.331 156.979 167.331C156.823 167.37 156.706 167.37 156.628 167.331C156.609 167.311 156.551 167.263 156.463 167.189C156.419 167.152 156.367 167.109 156.309 167.06L156.267 167.025L156.238 167C156.201 166.969 156.163 166.936 156.122 166.901L155.266 166.12L155.149 166.08L154.799 166.432V166.549C155.733 167.8 156.356 168.66 156.589 169.089L156.745 169.129C158.38 168.503 159.938 167.487 161.417 166.041C163.403 164.127 164.532 162.055 164.727 159.789C164.921 157.522 164.142 155.49 162.391 153.693C161.261 152.481 159.977 151.739 158.575 151.387C157.212 151.075 155.811 151.153 154.448 151.583C153.085 152.052 151.84 152.872 150.672 153.966C149.153 155.451 147.946 157.132 147.051 159.046V159.203C147.635 159.672 148.141 160.141 148.569 160.57C148.743 160.762 148.908 160.938 149.059 161.098L149.059 161.098C149.248 161.298 149.413 161.474 149.543 161.626C149.563 161.652 149.582 161.678 149.601 161.703L149.684 161.814C149.837 162.016 149.932 162.142 149.932 162.173C149.932 162.212 149.932 162.29 149.893 162.446L149.737 163.071Z" fill="#9BBEEE"/>
<path d="M54.5844 168.777C56.2586 168.777 57.6212 170.106 57.6212 171.747C57.6212 173.388 56.2586 174.756 54.5844 174.756C52.9103 174.756 51.5477 173.388 51.5477 171.747C51.5477 170.106 52.9103 168.777 54.5844 168.777Z" fill="#9BBEEE"/>
<path d="M146.35 171.747C146.35 170.106 144.987 168.777 143.313 168.777C141.639 168.777 140.276 170.106 140.276 171.747C140.276 173.388 141.639 174.756 143.313 174.756C144.987 174.756 146.35 173.388 146.35 171.747Z" fill="#9BBEEE"/>
<path d="M111.154 95.1153C110.843 95.8187 108.935 97.3037 108.234 97.8117C108.193 97.8037 108.153 97.796 108.113 97.7885C108.091 97.7843 108.069 97.7801 108.047 97.7759L107.894 97.7474C107.106 97.6003 106.657 97.5167 105.937 97.0692C107.183 96.5221 108.234 95.3888 108.779 94.451C109.363 94.8808 110.376 95.0371 111.154 95.1153Z" fill="#9BBEEE"/>
<path d="M107.806 94.0602C106.95 95.2325 105.743 96.0532 104.808 96.6003C102.738 95.5448 103.33 91.789 103.589 90.1497C103.637 89.8468 103.673 89.6161 103.679 89.4881C104.925 91.7546 106.599 93.2005 107.806 94.0602Z" fill="#9BBEEE"/>
<path d="M106.093 86.6354C107.417 89.3709 108.857 91.8718 110.609 94.2556C108.079 94.1384 105.042 90.1524 104.38 88.2376C104.185 87.7296 105.236 86.5963 106.093 86.6354Z" fill="#9BBEEE"/>
<path d="M94.8024 88.0031L92.3496 90.5823L91.0648 89.7617L93.3619 85.8148C94.0627 86.1274 94.8024 86.8699 94.8024 88.0031Z" fill="#9BBEEE"/>
<path d="M127.662 100.391C128.09 107.894 126.572 113.326 119.642 116.022C116.566 117.233 112.634 114.889 111.699 112.349C111.787 112.333 111.888 112.323 111.998 112.313C112.428 112.273 112.986 112.221 113.296 111.723C114.269 112.857 115.359 112.896 116.488 111.88C118.123 113.052 119.33 112.466 119.836 111.88C120.537 112.505 121.783 112.857 122.795 112.231C124.002 111.723 124.82 109.301 123.302 108.167C124.005 107.696 124.081 106.753 124.147 105.922C124.18 105.512 124.211 105.13 124.314 104.846H117.773C117.773 104.127 117.783 103.384 117.794 102.635C117.847 98.7804 117.903 94.7711 116.566 93.2005L116.255 103.751C115.554 100.469 112.595 98.6714 109.947 98.1243C112.478 96.6784 116.839 88.6675 116.761 84.2908C124.314 87.8468 127.351 94.3728 127.662 100.391Z" fill="#9BBEEE"/>
<path d="M115.32 83.9391C115.808 87.6295 113.006 92.2998 111.861 94.208C111.817 94.28 111.777 94.348 111.738 94.4119C111.31 93.982 110.726 93.0442 110.337 92.1845C112.011 90.0743 113.374 86.6354 113.607 83.5092L115.32 83.9391Z" fill="#9BBEEE"/>
<path d="M110.22 82.8058L112.089 83.2357C112.089 85.5022 110.96 89.4881 109.636 91.2075C109.405 90.6924 109.094 90.1094 108.765 89.4934L108.764 89.4919C108.095 88.2392 107.353 86.8502 107.066 85.6194L110.181 82.8058H110.22Z" fill="#9BBEEE"/>
<path fill-rule="evenodd" clip-rule="evenodd" d="M90.1693 82.5713C90.9051 83.5113 91.3823 83.8456 92.0205 84.2928C92.1253 84.3662 92.2343 84.4426 92.3496 84.5252L89.3517 90.0743L92.5443 91.9109L94.997 89.449C95.036 97.0301 95.7368 98.7886 97.6834 100.274C93.5176 101.993 89.3907 105.471 86.3539 109.027L86.4707 101.172C85.6531 100.86 84.2125 101.211 83.7843 101.915L83.94 92.966C82.4579 95.0234 82.4317 97.9781 82.4131 100.065C82.4088 100.555 82.4049 100.997 82.3827 101.368H77.555V104.064C77.3429 104.123 77.1272 104.143 76.9155 104.162C76.4278 104.207 75.9612 104.25 75.6083 104.768C74.635 105.901 74.9854 106.956 75.8419 107.386C74.4403 107.855 74.9854 109.848 75.764 110.043C74.5662 110.198 75.0557 111.508 75.2915 112.139L75.2968 112.153C72.5715 108.793 72.299 104.416 72.299 99.8828C72.844 94.6464 76.0366 89.1755 81.1368 85.6585C84.2515 83.8609 86.6653 83.0793 90.1693 82.5713ZM88.4952 98.3588C89.196 98.3588 89.78 97.8117 89.78 97.0692C89.78 96.3658 89.196 95.7796 88.4952 95.7796C87.7555 95.7796 87.1325 96.3658 87.1325 97.0692C87.1325 97.8117 87.7555 98.3588 88.4952 98.3588Z" fill="#9BBEEE"/>
<path d="M117.695 74.2478C119.875 76.6706 122.873 78.898 124.976 79.7577C126.572 80.9691 123.379 83.3529 120.615 84.408C117.267 82.7276 115.32 81.9461 111.544 80.891C112.712 78.6636 112.867 75.6937 112.595 72.7628L112.609 72.7625C114.55 72.7236 116.297 72.6885 117.695 74.2478Z" fill="#9BBEEE"/>
<path d="M88.0062 74.9482C88.0307 76.8343 88.0574 78.893 89.2349 80.891C88.8706 80.9872 88.5139 81.08 88.1645 81.1709L88.1635 81.1712C84.9662 82.003 82.386 82.6743 80.2803 84.3298C78.4504 84.3298 73.7395 80.2657 75.18 79.5233C76.4508 78.9472 77.7 77.8513 78.9504 76.7544C80.0751 75.7678 81.2007 74.7803 82.3438 74.1696C84.7576 72.8801 85.9645 72.8019 87.9112 72.841C87.9875 73.5081 87.9967 74.2152 88.0062 74.9482Z" fill="#9BBEEE"/>
<path d="M100.292 70.3009L101.655 71.6686L100.292 73.0364L98.8904 71.6686L100.292 70.3009Z" fill="#9BBEEE"/>
<path d="M129.453 73.9742C129.025 74.8339 128.557 75.0684 127.701 75.4983C126.883 75.8109 126.26 74.9903 126.767 74.5604L128.869 72.841C129.648 72.333 130.154 72.8801 129.453 73.9742Z" fill="#9BBEEE"/>
<path d="M128.285 72.2939L126.105 73.9352C125.404 74.5213 124.508 73.5444 125.209 72.9582L127.506 71.1606C128.285 70.7308 128.986 71.5514 128.285 72.2939Z" fill="#9BBEEE"/>
<path d="M125.17 68.9723L122.99 70.6135C122.25 71.2388 121.394 70.2228 122.095 69.6366L124.392 67.839C125.17 67.4092 125.871 68.2689 125.17 68.9723Z" fill="#9BBEEE"/>
<path d="M126.767 70.6135L124.586 72.2939C123.847 72.88 122.99 71.9031 123.691 71.2779L125.988 69.5194C126.767 69.0895 127.467 69.9101 126.767 70.6135Z" fill="#9BBEEE"/>
<path d="M120.654 70.2618C120.42 71.1606 121.043 72.1767 122.328 71.7859C121.705 73.1536 123.418 73.857 124.002 73.5835C123.652 74.4822 124.625 75.7327 125.637 75.1466C125.477 76.0503 126.007 76.1543 126.613 76.2732C126.74 76.2983 126.871 76.324 127 76.358C126.416 76.9832 124.431 77.4912 123.574 77.2568C122.395 76.6649 121.386 75.544 120.44 74.4931C119.887 73.8786 119.356 73.2879 118.824 72.841C118.318 72.0985 118.162 71.1606 118.513 70.3009C118.941 69.9064 119.341 69.5119 119.731 69.1275C120.614 68.2553 121.445 67.4348 122.445 66.7839C122.763 67.8101 122.206 68.3306 121.625 68.8735C121.211 69.2609 120.784 69.6597 120.654 70.2618Z" fill="#9BBEEE"/>
<path d="M85.0301 66.823L85.3027 70.8871C82.8499 70.8871 79.1512 74.0524 77.555 75.4983C75.4526 74.4822 74.5571 71.6686 74.4403 70.2228C74.7432 70.665 74.9293 70.638 75.1087 70.612C75.1829 70.6013 75.256 70.5907 75.3358 70.6135C75.9976 70.3791 76.1923 70.2618 76.4648 69.6757L76.4815 69.7386C76.6246 70.2816 76.6922 70.5382 77.555 70.6135C77.6474 70.5826 77.7476 70.5578 77.8499 70.5324C78.2644 70.4297 78.7149 70.318 78.8398 69.7538C78.9955 70.4182 79.1123 70.5354 79.9299 70.5745C80.436 70.5354 80.9422 70.34 81.0979 69.5975C81.3704 70.2228 81.6819 70.4963 82.5384 70.5745C83.0445 70.4182 83.5896 70.0665 83.7064 69.5194C83.7322 69.3855 83.7556 69.2565 83.7783 69.1318L83.7784 69.1313C83.9605 68.1278 84.0909 67.4095 84.9912 66.7839L85.0301 66.823Z" fill="#9BBEEE"/>
<path d="M83.1224 66.7448V68.9723C82.8888 70.0665 81.8376 70.0665 81.5651 68.855V66.7839C81.604 65.6116 82.9667 65.6897 83.1224 66.7448Z" fill="#9BBEEE"/>
<path d="M80.7475 66.7448V68.9723C80.5139 70.0665 79.5016 70.0665 79.1902 68.855V66.7839C79.268 65.6116 80.6307 65.6897 80.7475 66.7448Z" fill="#9BBEEE"/>
<path d="M78.3726 66.7448V68.9723C78.139 70.0665 77.0878 70.0665 76.7763 68.855V66.7839C76.8542 65.6116 78.2168 65.6897 78.3726 66.7448Z" fill="#9BBEEE"/>
<path d="M75.9198 66.7058V69.1677C75.6472 69.9883 74.7518 69.832 74.4792 69.0504C74.4218 68.1857 74.4703 67.9801 74.5778 67.524C74.616 67.3617 74.6618 67.1678 74.7128 66.9012C74.8686 65.9633 75.6083 65.6897 75.9198 66.7058Z" fill="#9BBEEE"/>
<path d="M105.081 62.0946C107.534 64.7519 107.572 66.9012 107.572 70.8871H110.648C110.415 65.7288 109.792 64.322 105.081 62.0946Z" fill="#9BBEEE"/>
<path d="M95.6589 62.0946C93.2061 64.7519 93.1283 66.9012 93.1672 70.8871H90.0915C90.3251 65.7288 90.9091 64.322 95.6589 62.0946Z" fill="#9BBEEE"/>
<path d="M101.304 60.5315C101.304 61.272 101.3 61.9677 101.296 62.6207C101.272 66.2752 101.257 68.5959 102.083 69.9883C102.55 70.5354 102.978 70.6917 103.718 70.8871H105.665C105.587 64.2829 104.341 62.4072 101.304 60.5315Z" fill="#9BBEEE"/>
<path d="M99.4354 60.5315C99.4354 61.1745 99.4381 61.7837 99.4407 62.3605C99.4576 66.1655 99.4682 68.5631 98.6568 69.9883C98.1896 70.5354 97.7613 70.6917 97.0216 70.8871H95.0749C95.1917 64.2829 96.3986 62.4072 99.4354 60.5315Z" fill="#9BBEEE"/>
<path d="M126.105 63.0325C124.586 62.1727 120.888 61.5084 117.773 63.814L119.875 66.5885L118.98 67.4092L113.607 60.8441L114.542 60.1016L116.878 62.7198C119.408 60.6878 119.992 58.3822 119.759 55.4904C121.939 56.1548 125.56 58.1087 126.105 63.0325Z" fill="#9BBEEE"/>
<path d="M102.862 117.937C102.667 118.562 102.589 119.265 103.251 119.773C102.355 120.633 102.589 121.805 103.329 122.704C102.472 123.486 102.55 125.088 103.329 125.791C102.55 126.456 102.433 127.784 103.407 128.761C102.978 129.152 102.9 129.699 102.9 130.285C101.304 128.292 101.187 125.088 101.187 123.994L101.187 123.948C101.187 123.145 101.183 119.622 102.862 117.937Z" fill="#9BBEEE"/>
<path d="M97.2552 117.937C97.4109 118.601 97.4498 119.265 96.8658 119.773C97.7224 120.633 97.4498 121.805 96.749 122.704C97.6056 123.486 97.5666 125.088 96.749 125.791C97.5666 126.456 97.6445 127.784 96.6712 128.761C97.0994 129.152 97.333 129.699 97.333 130.246C98.8937 128.336 98.8913 125.23 98.8904 124.07L98.8904 123.994L98.8904 123.949C98.8912 123.182 98.8951 119.659 97.2552 117.937Z" fill="#9BBEEE"/>
<path d="M121.744 111.45C122.484 111.45 123.068 110.864 123.068 110.16C123.068 109.457 122.484 108.832 121.744 108.832C121.043 108.832 120.42 109.457 120.42 110.16C120.42 110.864 121.043 111.45 121.744 111.45Z" fill="#9BBEEE"/>
<path d="M118.318 111.45C119.058 111.45 119.642 110.864 119.642 110.16C119.642 109.457 119.058 108.832 118.318 108.832C117.617 108.832 117.033 109.457 117.033 110.16C117.033 110.864 117.617 111.45 118.318 111.45Z" fill="#9BBEEE"/>
<path d="M114.931 111.45C115.671 111.45 116.255 110.864 116.255 110.16C116.255 109.457 115.671 108.832 114.931 108.832C114.23 108.832 113.607 109.457 113.607 110.16C113.607 110.864 114.23 111.45 114.931 111.45Z" fill="#9BBEEE"/>
<path d="M111.427 111.45C112.167 111.45 112.751 110.864 112.751 110.16C112.751 109.457 112.167 108.832 111.427 108.832C110.726 108.832 110.103 109.457 110.103 110.16C110.103 110.864 110.726 111.45 111.427 111.45Z" fill="#9BBEEE"/>
<path d="M95.1528 119.383C95.8925 119.383 96.4765 118.796 96.4765 118.093C96.4765 117.39 95.8925 116.803 95.1528 116.803C94.452 116.803 93.868 117.39 93.868 118.093C93.868 118.796 94.452 119.383 95.1528 119.383Z" fill="#9BBEEE"/>
<path d="M105.159 119.422C105.898 119.422 106.482 118.836 106.482 118.132C106.482 117.429 105.898 116.843 105.159 116.843C104.458 116.843 103.835 117.429 103.835 118.132C103.835 118.836 104.458 119.422 105.159 119.422Z" fill="#9BBEEE"/>
<path d="M95.1528 122.353C95.8925 122.353 96.4765 121.766 96.4765 121.063C96.4765 120.36 95.8925 119.773 95.1528 119.773C94.452 119.773 93.868 120.36 93.868 121.063C93.868 121.766 94.452 122.353 95.1528 122.353Z" fill="#9BBEEE"/>
<path d="M105.159 122.47C105.898 122.47 106.482 121.884 106.482 121.18C106.482 120.438 105.898 119.852 105.159 119.852C104.458 119.852 103.835 120.438 103.835 121.18C103.835 121.884 104.458 122.47 105.159 122.47Z" fill="#9BBEEE"/>
<path d="M95.1528 125.518C95.8925 125.518 96.4765 124.932 96.4765 124.228C96.4765 123.525 95.8925 122.939 95.1528 122.939C94.452 122.939 93.868 123.525 93.868 124.228C93.868 124.932 94.452 125.518 95.1528 125.518Z" fill="#9BBEEE"/>
<path d="M105.159 125.479C105.898 125.479 106.482 124.893 106.482 124.189C106.482 123.486 105.898 122.9 105.159 122.9C104.458 122.9 103.835 123.486 103.835 124.189C103.835 124.893 104.458 125.479 105.159 125.479Z" fill="#9BBEEE"/>
<path d="M95.1528 128.605C95.8925 128.605 96.4765 128.019 96.4765 127.315C96.4765 126.612 95.8925 126.026 95.1528 126.026C94.452 126.026 93.868 126.612 93.868 127.315C93.868 128.019 94.452 128.605 95.1528 128.605Z" fill="#9BBEEE"/>
<path d="M105.159 128.527C105.898 128.527 106.482 127.98 106.482 127.237C106.482 126.534 105.898 125.948 105.159 125.948C104.458 125.948 103.835 126.534 103.835 127.237C103.835 127.98 104.458 128.527 105.159 128.527Z" fill="#9BBEEE"/>
<path d="M95.1917 131.419C95.8146 131.419 96.3208 130.911 96.3208 130.285C96.3208 129.66 95.8146 129.113 95.1917 129.113C94.5299 129.113 94.0237 129.66 94.0237 130.285C94.0237 130.911 94.5299 131.419 95.1917 131.419Z" fill="#9BBEEE"/>
<path d="M105.159 131.34C105.782 131.34 106.327 130.832 106.327 130.207C106.327 129.582 105.782 129.074 105.159 129.074C104.497 129.074 103.991 129.582 103.991 130.207C103.991 130.832 104.497 131.34 105.159 131.34Z" fill="#9BBEEE"/>
<path d="M81.2147 116.452V119.5C79.891 118.406 79.6963 117.937 79.4238 116.491L81.2147 116.452Z" fill="#9BBEEE"/>
<path d="M124.314 115.162C132.023 116.1 132.762 129.074 124.392 130.911C122.054 131.262 119.781 130.524 117.501 129.784C114.2 128.712 110.885 127.636 107.339 129.855C107.456 129.465 107.027 128.996 106.677 128.839C107.689 127.902 107.728 126.612 106.833 125.791C107.728 125.127 107.806 123.408 106.872 122.587C107.806 121.805 107.728 120.36 106.95 119.695C106.968 119.68 106.987 119.665 107.007 119.65C107.036 119.628 107.067 119.606 107.1 119.583C107.324 119.423 107.595 119.23 107.689 118.757C109.324 120.828 113.802 120.711 118.046 117.78C120.888 117.702 123.185 116.491 124.314 115.162Z" fill="#9BBEEE"/>
<path d="M77.6718 116.295C78.2168 118.679 80.2803 120.75 82.5384 121.454L82.5774 118.132C85.1469 119.656 89.6243 120.633 92.6221 118.718C92.6611 119.148 92.9725 119.461 93.4008 119.656C92.3885 120.555 92.5443 121.727 93.4008 122.587C92.5053 123.251 92.5832 125.01 93.4787 125.674C92.5832 126.417 92.2328 127.98 93.5955 128.918C93.2061 129.035 92.8168 129.308 92.8557 130.051C89.3253 126.833 85.6261 128.091 81.8857 129.362C78.9025 130.376 75.893 131.399 72.9219 130.168C66.9651 126.846 69.6126 113.208 77.6718 116.295Z" fill="#9BBEEE"/>
<path d="M80.7864 113.013C82.4995 112.818 82.0712 114.928 80.8643 114.732H77.516C76.1923 114.889 75.6472 112.935 77.3992 113.013H80.7864Z" fill="#9BBEEE"/>
<path d="M80.9422 110.434C82.6163 110.277 82.227 112.388 81.02 112.192H77.6328C76.3091 112.31 75.764 110.395 77.516 110.434H80.9422Z" fill="#9BBEEE"/>
<path d="M80.9422 107.933C82.6163 107.737 82.227 109.848 81.02 109.652H77.6328C76.3091 109.769 75.764 107.855 77.516 107.933H80.9422Z" fill="#9BBEEE"/>
<path d="M80.9422 105.354C82.6163 105.158 82.227 107.268 81.02 107.073H77.6328C76.3091 107.229 75.764 105.315 77.516 105.354H80.9422Z" fill="#9BBEEE"/>
<path d="M122.25 106.604C122.406 106.839 122.211 107.347 122.017 107.62C121.121 107.542 120.42 107.581 119.992 108.441C119.564 107.62 117.306 107.542 116.605 108.441C115.593 107.503 114.035 107.386 113.335 108.597C112.906 108.128 112.4 107.737 111.777 107.737C111.388 107.542 111.31 106.956 111.31 106.604H122.25Z" fill="#9BBEEE"/>
<path fill-rule="evenodd" clip-rule="evenodd" d="M102.978 102.423C103.456 102.682 104.301 102.92 105.233 103.181C107.11 103.709 109.337 104.335 109.597 105.432L109.87 107.855C109.363 108.324 108.857 109.183 108.857 110.121C109.324 113.326 112.322 116.139 114.697 117.351C113.218 118.327 110.298 119.109 108.585 117.351C107.417 115.787 104.73 115.123 103.368 116.1C101.11 117.663 100.759 118.054 100.136 120.32C99.669 118.679 98.8125 116.374 97.0216 116.022C95.7368 115.279 93.7901 115.553 91.8435 117.194C90.4419 118.367 89.2739 118.171 88.028 117.898C88.1448 116.725 88.4952 113.599 89.2349 112.427C91.9957 107.796 97.7688 104.972 102.558 102.629L102.579 102.618C102.713 102.553 102.846 102.488 102.978 102.423ZM100.292 112.27C100.993 112.27 101.616 111.684 101.616 110.981C101.616 110.277 100.993 109.691 100.292 109.691C99.5522 109.691 98.9682 110.277 98.9682 110.981C98.9682 111.684 99.5522 112.27 100.292 112.27Z" fill="#9BBEEE"/>
<path d="M85.0301 103.439C84.9172 104.482 84.9943 105.525 85.0723 106.58C85.2631 109.16 85.459 111.808 82.8888 114.693C83.4339 113.56 83.0056 112.778 82.3438 112.544C83.3171 111.919 83.5896 110.707 82.6163 110.004C83.356 109.496 83.3949 107.894 82.5774 107.464C83.1099 107.006 83.1779 106.38 83.2443 105.768C83.3138 105.128 83.3816 104.503 83.979 104.103C84.3293 103.712 84.6019 103.517 84.9912 103.439H85.0301Z" fill="#9BBEEE"/>
<path d="M98.8904 101.055L100.837 101.915C100.475 102.106 100.114 102.295 99.7537 102.484C97.248 103.794 94.8057 105.072 92.6611 106.917C89.196 109.457 86.6264 115.475 86.0424 117.702C85.3416 117.741 84.8355 117.429 84.2125 116.882C84.4072 111.059 90.3251 105.354 94.0237 103.322C95.5811 102.423 97.0605 101.68 98.8904 101.055Z" fill="#9BBEEE"/>
<path d="M78.9566 102.462H81.1758V103.83H78.9566V102.462Z" fill="#9BBEEE"/>
<path fill-rule="evenodd" clip-rule="evenodd" d="M95.7368 72.8801C99.1629 72.8801 100.292 74.4822 100.292 75.4592C100.292 74.4822 101.538 72.8801 105.042 72.8801H110.57C110.96 74.9121 110.726 77.3349 109.986 79.6405C109.123 81.3018 107.683 82.4291 106.213 83.5799C105.297 84.2968 104.369 85.0229 103.562 85.8929C101.538 88.7456 101.888 94.451 102.511 95.9359C103.368 98.0852 106.599 99.2575 108.585 99.2966C110.609 99.2966 115.087 100.547 115.087 104.846L111.115 104.807C110.625 103.239 108.482 102.649 105.928 101.946C103.008 101.142 99.5501 100.191 97.4109 97.46C96.4858 95.6239 96.5599 93.5143 96.6337 91.4143C96.6965 89.6258 96.7591 87.8443 96.204 86.2446C95.5118 84.9737 94.8122 84.4229 94.0641 83.8339C93.087 83.0645 92.0271 82.23 90.7923 79.6405C89.9747 78.0383 89.6632 75.6546 89.9747 72.8801H95.7368ZM96.5933 75.7327C97.4109 75.889 97.956 77.1395 97.8781 77.882C96.4376 77.9602 94.8024 77.9602 93.8291 77.4912C93.284 77.1004 92.8557 76.2017 92.8557 75.5764C92.8948 75.5764 92.9359 75.5764 92.9787 75.5763C93.0173 75.5762 93.0573 75.576 93.0987 75.5759L93.2869 75.5751C94.3652 75.5702 96.0847 75.5626 96.5933 75.7327ZM104.068 75.7327C103.212 75.889 102.667 77.1395 102.745 77.882C104.185 77.9602 105.82 77.9602 106.794 77.4912C107.378 77.1004 107.806 76.2017 107.767 75.5764C107.642 75.5764 107.496 75.5758 107.337 75.5751H107.336C106.258 75.5702 104.543 75.5626 104.068 75.7327Z" fill="#9BBEEE"/>
<path d="M100.214 143.259C98.5789 141.344 97.2162 140.719 93.1672 140.328C90.7146 140.085 86.9745 140.069 83.3452 140.054H83.3434C81.1545 140.044 79.006 140.035 77.2046 139.977C73.7784 139.898 71.5592 138.726 71.2088 135.17C73.1296 136.666 76.8025 136.489 80.8907 136.291C82.3545 136.22 83.8716 136.147 85.3805 136.147C86.0979 136.143 86.8172 136.133 87.5315 136.123L87.5332 136.123C93.292 136.042 98.7248 135.967 100.214 138.921C101.669 135.967 107.098 136.042 112.856 136.123L112.857 136.123C113.572 136.133 114.291 136.143 115.009 136.147C116.516 136.147 118.035 136.22 119.501 136.291C123.602 136.489 127.298 136.667 129.219 135.17C128.83 138.726 126.611 139.898 123.185 139.977C121.383 140.035 119.228 140.044 117.034 140.054C113.397 140.069 109.651 140.085 107.222 140.328C103.173 140.719 101.81 141.344 100.214 143.259Z" fill="#9BBEEE"/>
<path fill-rule="evenodd" clip-rule="evenodd" d="M99.9805 35.4045C135.332 35.4045 163.987 64.1657 163.987 99.6483C163.987 135.131 135.332 163.892 99.9805 163.892C64.6681 163.892 36.0132 135.131 36.0132 99.6483C36.0132 64.1657 64.6681 35.4045 99.9805 35.4045ZM117.462 53.3412C120.537 53.3412 123.107 54.9043 124.937 56.9754C126.844 58.9293 127.857 62.3681 127.156 65.338C125.131 63.5014 122.445 63.3842 119.914 64.2439L121.043 65.807L123.029 64.4783C123.162 64.7003 123.316 64.894 123.466 65.0816C123.844 65.5546 124.192 65.9895 124.08 66.7448C125.521 66.1978 127.117 67.5264 126.377 68.5815C128.012 68.0344 128.441 69.4021 128.246 69.9492C129.18 69.9101 129.998 70.6135 129.764 71.6296C130.816 71.3951 131.127 72.333 130.932 73.349C129.92 75.8109 128.713 77.882 125.248 78.7417L127.156 79.6405C126.066 82.4932 124.158 84.9551 122.017 85.7366C126.338 89.8007 128.986 94.8418 129.18 103.165C129.258 106.174 128.363 111.762 125.482 113.99C128.869 114.928 132.295 118.445 132.178 123.134C132.139 124.619 131.75 126.182 131.01 127.98C129.025 132.591 124.041 132.982 120.109 132.278C118.85 132.056 117.665 131.697 116.513 131.349C113.817 130.533 111.305 129.772 108.468 130.95C108.214 131.094 107.951 131.26 107.682 131.43C106.342 132.279 104.813 133.248 103.095 132.239C101.304 130.989 100.876 130.207 100.136 128.292C99.3576 130.129 98.8904 130.832 97.2162 132.044C95.3085 133.49 92.8947 132.122 91.7267 130.95C88.8525 128.856 85.8453 130.048 82.9332 131.203C81.3879 131.816 79.8693 132.418 78.4115 132.513C70.547 133.451 67.7438 128.527 67.7827 123.486C67.8217 119.07 70.0019 114.576 74.4792 114.537C73.1555 112.974 71.5593 110.785 71.0531 107.542C69.6126 98.7495 70.547 93.2786 78.6062 85.2677C76.8542 84.4861 74.6739 82.9621 73.0776 79.406C75.8808 77.7257 76.2702 76.866 76.3091 76.6706C73.7006 74.365 72.4547 70.7699 73.2334 67.1747C73.467 66.2368 73.8952 65.6116 74.5571 64.9863C75.0632 64.791 75.9587 64.5174 76.3091 65.2208C77.0488 64.3611 78.3336 64.322 78.9176 65.1817C79.6184 64.322 80.7475 64.4002 81.4872 65.3771C81.7987 64.4002 83.94 64.1657 83.979 66.4713C84.4851 65.2208 86.3149 64.8691 87.3272 64.9863C87.2825 65.1029 87.2338 65.2092 87.1856 65.3142C87.0239 65.6666 86.8689 66.0043 86.8989 66.6667C86.938 67.4123 86.9281 68.1283 86.9183 68.8296V68.8301C86.9086 69.5254 86.8991 70.2062 86.9379 70.8871H88.0669C88.2227 66.5495 89.4685 62.9543 95.3475 60.297C95.8907 60.0593 96.4538 59.8717 97.0333 59.6786C98.0737 59.3319 99.1668 58.9677 100.292 58.265C101.222 58.8426 102.176 59.1676 103.106 59.4841C103.812 59.7244 104.503 59.9598 105.159 60.297C111.544 63.6577 112.244 66.2368 112.439 70.8089L116.332 71.1997C116.139 69.9591 116.636 69.5262 118.089 68.2601L118.123 68.2298L111.816 60.6096L114.619 58.304L117.033 60.805C118.046 59.6718 118.707 57.2489 118.24 55.5686C118.219 55.4455 118.202 55.3198 118.186 55.1914C118.112 54.6265 118.033 54.0098 117.462 53.3412ZM100.214 145.916C98.687 141.662 90.7325 142 84.1888 142.278C81.056 142.411 78.2466 142.531 76.6206 142.126C70.7378 140.666 70.222 137.536 69.6595 134.123C69.5444 133.425 69.4274 132.715 69.2622 132.005C72.5172 135.359 76.9444 134.948 81.6922 134.507C83.3616 134.352 85.0705 134.193 86.7821 134.193C87.6321 134.193 88.526 134.17 89.4346 134.147C93.7284 134.039 98.3504 133.922 100.214 136.147C102.046 133.922 106.662 134.039 110.954 134.147L110.955 134.147C111.863 134.17 112.757 134.193 113.607 134.193C115.341 134.193 117.011 134.356 118.619 134.513C123.111 134.951 127.125 135.343 130.738 132.005C130.691 132.423 130.653 132.86 130.615 133.309C130.306 136.93 129.935 141.291 123.769 142.126C122.344 142.321 120.068 142.215 117.476 142.095C110.721 141.782 101.818 141.37 100.214 145.916ZM87.2493 64.3611C87.9501 64.3611 88.5731 63.7749 88.5731 63.0325C88.5731 62.3291 87.9501 61.7429 87.2493 61.7429C86.5096 61.7429 85.9256 62.3291 85.9256 63.0325C85.9256 63.7749 86.5096 64.3611 87.2493 64.3611ZM87.0547 61.0395C87.7944 61.0395 88.3784 60.4533 88.3784 59.7499C88.3784 59.0074 87.7944 58.4213 87.0547 58.4213C86.3539 58.4213 85.7309 59.0074 85.7309 59.7499C85.7309 60.4533 86.3539 61.0395 87.0547 61.0395ZM85.3416 57.8742C86.0424 57.8742 86.6653 57.288 86.6653 56.5846C86.6653 55.8812 86.0424 55.2951 85.3416 55.2951C84.6019 55.2951 84.0179 55.8812 84.0179 56.5846C84.0179 57.288 84.6019 57.8742 85.3416 57.8742ZM82.227 56.4283C82.9667 56.4283 83.5896 55.8421 83.5896 55.1387C83.5896 54.3963 82.9667 53.8101 82.227 53.8101C81.5262 53.8101 80.9422 54.3963 80.9422 55.1387C80.9422 55.8421 81.5262 56.4283 82.227 56.4283ZM78.4115 56.272C79.1512 56.272 79.7352 55.6858 79.7352 54.9824C79.7352 54.279 79.1512 53.6929 78.4115 53.6929C77.7107 53.6929 77.0878 54.279 77.0878 54.9824C77.0878 55.6858 77.7107 56.272 78.4115 56.272ZM75.2968 58.265C75.9976 58.265 76.6206 57.6788 76.6206 56.9754C76.6206 56.2329 75.9976 55.6468 75.2968 55.6468C74.5571 55.6468 73.9731 56.2329 73.9731 56.9754C73.9731 57.6788 74.5571 58.265 75.2968 58.265ZM73.3112 61.2349C74.051 61.2349 74.6739 60.6096 74.6739 59.9062C74.6739 59.2028 74.051 58.6167 73.3112 58.6167C72.6104 58.6167 72.0265 59.2028 72.0265 59.9062C72.0265 60.6096 72.6104 61.2349 73.3112 61.2349ZM73.5448 64.6737C74.2456 64.6737 74.8296 64.0876 74.8296 63.3842C74.8296 62.6808 74.2456 62.0555 73.5448 62.0555C72.8051 62.0555 72.2211 62.6808 72.2211 63.3842C72.2211 64.0876 72.8051 64.6737 73.5448 64.6737Z" fill="#9BBEEE"/>
<path fill-rule="evenodd" clip-rule="evenodd" d="M168.308 99.6482C168.308 61.7819 137.707 31.0668 99.9805 31.0668C62.2542 31.0668 31.6527 61.7819 31.6527 99.6482C31.6527 137.515 62.2542 168.23 99.9805 168.23C137.707 168.23 168.308 137.515 168.308 99.6482ZM166.011 99.6482C166.011 63.0714 136.461 33.3723 99.9805 33.3723C63.539 33.3723 33.9887 63.0714 33.9887 99.6482C33.9887 136.225 63.539 165.924 99.9805 165.924C136.461 165.924 166.011 136.225 166.011 99.6482Z" fill="#9BBEEE"/>
<path d="M80.7475 173.349L77.0488 174.17L77.0877 174.521C77.6328 174.404 77.9832 174.404 78.2168 174.482C78.4115 174.482 78.5283 174.599 78.6061 174.717C78.7229 174.834 78.8008 175.029 78.7619 175.264C78.7619 175.576 78.6451 176.202 78.4115 177.179L76.5816 184.564C76.3869 185.346 76.1923 185.854 76.1144 186.01C75.9976 186.127 75.8029 186.245 75.6083 186.284C75.4136 186.323 74.9464 186.284 74.3235 186.127L74.2067 186.518L79.3459 187.808L79.4237 187.417C78.8397 187.261 78.4115 187.104 78.2557 186.948C78.0611 186.792 77.9832 186.596 77.9832 186.401C77.9508 186.238 78.0262 185.887 78.142 185.346C78.1655 185.236 78.1906 185.119 78.2168 184.994L81.0979 173.466L80.7475 173.349Z" fill="#9BBEEE"/>
<path fill-rule="evenodd" clip-rule="evenodd" d="M87.989 189.683L87.9501 190.035L88.573 190.074C89.8578 190.231 91.1037 189.957 92.2328 189.332C93.6733 188.55 94.8413 187.534 95.6978 186.245C96.5933 184.994 97.0994 183.548 97.2162 181.985C97.4109 180.266 97.0215 178.781 96.1261 177.53C95.3864 176.514 94.4519 175.928 93.3229 175.85C91.9602 175.694 90.7922 176.202 89.8578 177.296C89.0792 178.195 88.612 179.25 88.4952 180.461C88.4173 181.712 88.6898 182.767 89.3128 183.587C89.9357 184.408 90.7533 184.838 91.7266 184.955C92.5832 184.994 93.5954 184.76 94.7245 184.174C94.3351 185.346 93.7512 186.401 92.9336 187.339C92.1549 188.277 91.3373 188.902 90.5197 189.254C89.741 189.566 88.8845 189.723 87.989 189.683ZM95.3085 181.282C95.2696 181.829 95.1527 182.532 94.9581 183.431C94.6077 183.666 94.2184 183.822 93.7512 183.939C93.3229 184.056 92.9336 184.095 92.6221 184.056C91.9602 184.017 91.4541 183.665 91.0648 183.04C90.5197 182.181 90.325 181.008 90.4418 179.562C90.5197 178.468 90.8312 177.687 91.3373 177.179C91.8434 176.631 92.4274 176.436 93.0114 176.475C93.5565 176.553 93.9848 176.788 94.3741 177.257C94.7634 177.687 95.036 178.273 95.1917 179.093C95.3474 179.875 95.3864 180.617 95.3085 181.282Z" fill="#9BBEEE"/>
<path d="M111.388 190.035L112.244 187.261L111.855 187.3C111.699 187.612 111.505 187.886 111.271 188.042C111.038 188.238 110.765 188.355 110.492 188.433C110.181 188.511 109.675 188.55 108.935 188.589L105.275 188.785C105.655 188.403 106.628 187.241 108.194 185.369L108.312 185.229C109.363 183.9 110.142 182.689 110.609 181.555C110.882 180.813 110.999 180.109 110.999 179.406C110.921 178.39 110.492 177.569 109.714 176.866C108.935 176.163 107.962 175.85 106.833 175.928C105.743 175.967 104.886 176.358 104.185 177.1C103.523 177.804 103.134 178.82 103.017 180.07H103.407C103.64 179.289 103.991 178.664 104.536 178.234C105.042 177.804 105.665 177.569 106.327 177.53C107.105 177.491 107.767 177.765 108.312 178.312C108.935 178.859 109.208 179.523 109.247 180.461C109.324 181.633 108.896 182.923 108.001 184.369C107.066 185.815 105.431 187.73 103.173 190.074V190.465L111.388 190.035Z" fill="#9BBEEE"/>
<path fill-rule="evenodd" clip-rule="evenodd" d="M117.423 177.648C117.189 178.898 117.267 180.266 117.617 181.829C118.045 183.665 118.746 185.15 119.797 186.284C121.004 187.612 122.289 188.159 123.574 187.808C124.236 187.691 124.859 187.3 125.443 186.596C126.066 185.971 126.416 185.033 126.65 183.783C126.805 182.571 126.767 181.165 126.416 179.601C125.871 177.335 124.937 175.655 123.613 174.56C122.523 173.701 121.433 173.349 120.381 173.623C119.759 173.74 119.175 174.131 118.707 174.717C118.045 175.42 117.617 176.397 117.423 177.648ZM121.394 186.088C120.654 185.033 120.109 183.509 119.642 181.633C119.369 180.461 119.213 179.25 119.097 178.038C118.98 176.788 119.097 175.85 119.447 175.186C119.759 174.678 120.07 174.365 120.537 174.287C120.927 174.17 121.316 174.209 121.627 174.365C122.095 174.639 122.523 175.107 122.951 175.811C123.496 176.788 123.963 178.038 124.314 179.601C124.82 181.712 125.015 183.392 124.976 184.603C124.937 185.424 124.781 186.01 124.469 186.44C124.158 186.87 123.847 187.104 123.457 187.182C122.717 187.378 122.017 186.987 121.394 186.088Z" fill="#9BBEEE"/>
<path fill-rule="evenodd" clip-rule="evenodd" d="M99.9805 0C155.188 0 200 44.7831 200 100C200 155.217 155.188 200 99.9805 200C44.7732 200 0 155.217 0 100C0 44.7831 44.7732 0 99.9805 0ZM99.9805 2.85268C153.631 2.85268 197.119 46.3462 197.119 100C197.119 153.654 153.631 197.147 99.9805 197.147C46.3695 197.147 2.88106 153.654 2.88106 100C2.88106 46.3462 46.3695 2.85268 99.9805 2.85268Z" fill="#9BBEEE"/>
</svg>
