<svg width="26" height="25" viewBox="0 0 26 25" fill="none" xmlns="http://www.w3.org/2000/svg">
<path id="Vector" d="M25.0844 9.77532V9.53472V9.3663C24.7532 7.59154 23.9146 5.94983 22.6692 4.63853C21.3278 3.22706 19.6737 2.1477 17.8389 1.48668C16.2081 0.859796 14.4786 0.525812 12.7308 0.500229C10.4269 0.487123 8.15483 1.03646 6.11326 2.10021C4.32562 2.93337 2.82508 4.27432 1.80021 5.95455C0.775339 7.63477 0.271873 9.57929 0.353086 11.5437C0.534805 13.4859 1.29606 15.3295 2.53881 16.8369C3.7809 18.3276 5.37395 19.4889 7.17593 20.2173C8.29168 20.6449 9.44918 20.9554 10.6296 21.1436H10.7625C11.1006 21.1436 11.1851 21.288 11.2093 21.3241C11.2335 21.4106 11.2335 21.5022 11.2093 21.5887C11.2093 21.6609 11.2093 21.7211 11.2093 21.7812C11.0348 22.3122 10.9812 22.8751 11.0523 23.4293C11.0851 23.7249 11.2267 23.9979 11.4497 24.1956C11.6727 24.3934 11.9613 24.5018 12.2599 24.5C12.9596 24.4144 13.6274 24.1582 14.2041 23.7541H14.2644C15.472 23.0564 16.6072 22.2504 17.4645 21.6368C19.5337 20.2864 21.4139 18.6682 23.0556 16.8249C24.6393 14.8338 25.3686 12.2998 25.0844 9.77532ZM8.06954 13.5407H5.93212C5.85555 13.5423 5.77944 13.5285 5.70837 13.5001C5.6373 13.4716 5.57274 13.4292 5.51858 13.3752C5.46443 13.3213 5.42179 13.257 5.39325 13.1862C5.3647 13.1154 5.35083 13.0395 5.35248 12.9633V8.48811C5.35083 8.41183 5.3647 8.33601 5.39325 8.26521C5.42179 8.19441 5.46443 8.1301 5.51858 8.07615C5.57274 8.0222 5.6373 7.97973 5.70837 7.95129C5.77944 7.92285 5.85555 7.90904 5.93212 7.91068C6.00925 7.90908 6.08592 7.92283 6.15765 7.95113C6.22937 7.97943 6.29471 8.02171 6.34982 8.07549C6.40493 8.12927 6.44871 8.19347 6.47859 8.26432C6.50847 8.33518 6.52385 8.41126 6.52384 8.48811V12.3738H8.06954C8.22647 12.3738 8.37698 12.4359 8.48795 12.5464C8.59892 12.657 8.66126 12.8069 8.66126 12.9633C8.66127 13.0401 8.64589 13.1162 8.61601 13.187C8.58613 13.2579 8.54235 13.3221 8.48724 13.3759C8.43213 13.4297 8.36679 13.4719 8.29507 13.5002C8.22334 13.5285 8.14667 13.5423 8.06954 13.5407ZM10.3036 12.9512C10.3036 13.1108 10.24 13.2637 10.1267 13.3765C10.0135 13.4894 9.85991 13.5527 9.69978 13.5527C9.53964 13.5527 9.38607 13.4894 9.27283 13.3765C9.1596 13.2637 9.09599 13.1108 9.09599 12.9512V8.47608C9.09599 8.31656 9.1596 8.16356 9.27283 8.05076C9.38607 7.93796 9.53964 7.87459 9.69978 7.87459C9.85991 7.87459 10.0135 7.93796 10.1267 8.05076C10.24 8.16356 10.3036 8.31656 10.3036 8.47608V12.9512ZM15.5928 12.9512C15.5911 13.0747 15.5506 13.1945 15.477 13.2938C15.4033 13.3931 15.3002 13.4668 15.1822 13.5046H15.0011C14.9089 13.5056 14.8178 13.4843 14.7357 13.4423C14.6537 13.4004 14.5831 13.3392 14.5301 13.264L12.4289 10.4009V12.9512C12.4258 13.1055 12.362 13.2523 12.2514 13.3603C12.1408 13.4682 11.9921 13.5287 11.8372 13.5287C11.7581 13.5336 11.6788 13.5223 11.6042 13.4955C11.5297 13.4687 11.4614 13.427 11.4037 13.3728C11.346 13.3187 11.3 13.2534 11.2687 13.1809C11.2373 13.1083 11.2212 13.0302 11.2213 12.9512V8.60841C11.2214 8.4848 11.2597 8.3642 11.331 8.26303C11.4023 8.16186 11.5031 8.08504 11.6198 8.04301C11.7376 8.00696 11.8638 8.00846 11.9807 8.04728C12.0976 8.0861 12.1994 8.1603 12.2719 8.25955L14.3852 11.1467V8.47608C14.3852 8.31656 14.4488 8.16356 14.562 8.05076C14.6753 7.93796 14.8289 7.87459 14.989 7.87459C15.1491 7.87459 15.3027 7.93796 15.4159 8.05076C15.5292 8.16356 15.5928 8.31656 15.5928 8.47608V12.9512ZM19.8556 13.4324H16.9574C16.8808 13.4341 16.8047 13.4202 16.7336 13.3918C16.6625 13.3634 16.598 13.3209 16.5438 13.267C16.4897 13.213 16.447 13.1487 16.4185 13.0779C16.3899 13.0071 16.3761 12.9313 16.3777 12.855V8.37985C16.3777 8.2267 16.4388 8.07983 16.5475 7.97154C16.6562 7.86324 16.8036 7.80241 16.9574 7.80241H19.7589C19.9191 7.80241 20.0727 7.86578 20.1859 7.97858C20.2991 8.09138 20.3627 8.24438 20.3627 8.4039C20.3627 8.56343 20.2991 8.71642 20.1859 8.82923C20.0727 8.94203 19.9191 9.0054 19.7589 9.0054H17.537V10.0761H19.3484C19.5021 10.0761 19.6495 10.1369 19.7582 10.2452C19.8669 10.3535 19.928 10.5004 19.928 10.6535C19.928 10.8078 19.8674 10.9559 19.759 11.0661C19.6506 11.1763 19.5032 11.2398 19.3484 11.243H17.537V12.3136H19.8556C20.0157 12.3136 20.1693 12.377 20.2825 12.4898C20.3957 12.6026 20.4593 12.7556 20.4593 12.9151C20.4593 13.0747 20.3957 13.2277 20.2825 13.3405C20.1693 13.4533 20.0157 13.5166 19.8556 13.5166V13.4324Z" fill="#1A202C"/>
</svg>
