<svg width="26" height="25" viewBox="0 0 26 25" fill="none" xmlns="http://www.w3.org/2000/svg">
<path id="LinkedIn" d="M25.3447 15.2144V24.5H19.9614V15.8363C19.9614 13.6599 19.1828 12.1746 17.2343 12.1746C15.7468 12.1746 14.8616 13.1756 14.4722 14.1438C14.3302 14.49 14.2936 14.9718 14.2936 15.4564V24.5H8.90859C8.90859 24.5 8.98111 9.8265 8.90859 8.30621H14.2931V10.6016C14.2822 10.6188 14.268 10.6373 14.2577 10.6539H14.2931V10.6016C15.0085 9.49978 16.2861 7.92577 19.1457 7.92577C22.6887 7.92572 25.3447 10.2403 25.3447 15.2144ZM3.27562 0.5C1.43341 0.5 0.228455 1.70834 0.228455 3.29736C0.228455 4.85175 1.39855 6.09676 3.20415 6.09676H3.24012C5.11801 6.09676 6.28589 4.85198 6.28589 3.29736C6.2505 1.70834 5.11801 0.5 3.27562 0.5ZM0.548278 24.5H5.93126V8.30621H0.548278V24.5Z" fill="#1A202C"/>
</svg>
