<svg width="45" height="46" viewBox="0 0 45 46" fill="none" xmlns="http://www.w3.org/2000/svg">
<path opacity="0.4" fill-rule="evenodd" clip-rule="evenodd" d="M0.767578 9.50001C0.767578 4.52945 4.46143 0.50001 9.01804 0.50001L36.2676 0.5C40.8242 0.5 44.518 4.52944 44.518 9.5V36.5C44.518 41.4706 40.8242 45.5 36.2676 45.5H9.01804C4.46143 45.5 0.767578 41.4706 0.767578 36.5V9.50001Z" fill="#8EB5EB"/>
<path fill-rule="evenodd" clip-rule="evenodd" d="M22.9932 23C25.7505 23 27.9857 20.7648 27.9857 18.0075C27.9857 15.2502 25.7505 13.015 22.9932 13.015C20.2359 13.015 18.0007 15.2502 18.0007 18.0075C18.0007 20.7648 20.2359 23 22.9932 23ZM29.6499 32.9849H16.3366C15.1425 32.9849 14.0217 32.6705 13.0527 32.1198C13.0807 31.8495 13.1215 31.5829 13.1747 31.3208C13.9457 27.5228 17.3036 24.6641 21.3291 24.6641H24.6574C28.683 24.6641 32.0408 27.5228 32.8118 31.3208C32.865 31.5829 32.9058 31.8495 32.9338 32.1198C31.9648 32.6705 30.8441 32.9849 29.6499 32.9849Z" fill="#8EB5EB"/>
</svg>
