<svg width="22" height="23" viewBox="0 0 22 23" fill="none" xmlns="http://www.w3.org/2000/svg">
<path id="Vector" d="M20.0532 20.3442C17.6959 16.9046 15.3366 13.466 12.9781 10.027C12.9473 9.98223 12.9191 9.93559 12.8807 9.87608C13.2938 9.39452 13.7049 8.91502 14.1163 8.43574C16.2549 5.94496 18.3937 3.45394 20.5323 0.962929C20.5456 0.947305 20.5562 0.929614 20.5681 0.912842H18.7519C16.5322 3.4976 14.3123 6.08258 12.0573 8.70846C12.0302 8.65953 12.0109 8.61748 11.9851 8.58003C10.2535 6.05409 8.52133 3.52861 6.78965 1.00268C6.77059 0.974646 6.75703 0.94294 6.74072 0.912842H0.590607C0.64391 1.00015 0.693078 1.09021 0.750747 1.1743C3.34998 4.96574 5.9499 8.75671 8.54982 12.5479C8.57693 12.5874 8.60289 12.6279 8.6408 12.6851C8.42965 12.9328 8.21736 13.183 8.00346 13.432C5.58642 16.2468 3.16916 19.0613 0.752355 21.8762C0.694916 21.9433 0.64437 22.0166 0.590607 22.0872H2.40683C3.22935 21.1247 4.05027 20.1609 4.87441 19.1998C6.33956 17.4911 7.80679 15.7838 9.27309 14.0763C9.32662 14.0138 9.38176 13.9529 9.44563 13.88C9.48699 13.9301 9.52375 13.9687 9.55362 14.0122C11.3715 16.6624 13.1888 19.3129 15.006 21.9638C15.0328 22.0031 15.0544 22.046 15.0786 22.0872H21.2284C20.8369 21.5061 20.4493 20.9223 20.0532 20.3442ZM18.5054 20.7709C17.7214 20.7716 16.9375 20.7674 16.1536 20.7748C16.0077 20.7759 15.9179 20.7344 15.8326 20.6124C11.6221 14.5716 7.40816 8.53293 3.19489 2.49402C3.15606 2.43842 3.12068 2.38029 3.05865 2.28517C3.82764 2.28517 4.55643 2.31412 5.28154 2.27415C5.71049 2.25048 5.94691 2.40143 6.18976 2.75112C10.304 8.67446 14.4346 14.5865 18.5614 20.5012C18.615 20.5779 18.6667 20.6558 18.737 20.7587C18.6361 20.7642 18.5709 20.7707 18.5054 20.7709Z" fill="#1A202C"/>
</svg>
