<svg width="71" height="46" viewBox="0 0 71 46" fill="none" xmlns="http://www.w3.org/2000/svg">
<path opacity="0.4" fill-rule="evenodd" clip-rule="evenodd" d="M0.767578 9.5C0.767578 4.52944 4.46144 0.5 9.01804 0.5H62.5171C67.0737 0.5 70.7676 4.52944 70.7676 9.5V36.5C70.7676 41.4706 67.0737 45.5 62.5171 45.5H9.01804C4.46144 45.5 0.767578 41.4706 0.767578 36.5V9.5Z" fill="#8EB5EB"/>
<path fill-rule="evenodd" clip-rule="evenodd" d="M19.9935 23C22.7508 23 24.986 20.7648 24.986 18.0075C24.986 15.2503 22.7508 13.0151 19.9935 13.0151C17.2363 13.0151 15.0011 15.2503 15.0011 18.0075C15.0011 20.7648 17.2363 23 19.9935 23ZM26.6502 32.985H13.3369C12.1428 32.985 11.0221 32.6705 10.0531 32.1199C10.081 31.8495 10.1219 31.5829 10.1751 31.3208C10.946 27.5228 14.3039 24.6642 18.3294 24.6642H21.6577C25.6833 24.6642 29.0411 27.5228 29.8121 31.3208C29.8653 31.5829 29.9062 31.8495 29.9341 32.1199C28.9651 32.6705 27.8444 32.985 26.6502 32.985Z" fill="#8EB5EB"/>
<path d="M34.5176 15.9167H61.6009" stroke="#8EB5EB" stroke-width="2.5" stroke-linecap="round"/>
<path d="M39.1009 23L61.6009 23" stroke="#8EB5EB" stroke-width="2.5" stroke-linecap="round"/>
<path d="M39.1009 29.6667L61.6009 29.6667" stroke="#8EB5EB" stroke-width="2.5" stroke-linecap="round"/>
</svg>
