<svg width="25" height="25" viewBox="0 0 25 25" fill="none" xmlns="http://www.w3.org/2000/svg">
<path id="Vector" d="M0.144653 0.5V24.5H24.1447V0.5H0.144653ZM20.0827 6.186L18.7957 7.42C18.7411 7.46155 18.6989 7.51725 18.6737 7.58106C18.6485 7.64487 18.6412 7.71436 18.6527 7.782V16.849C18.6414 16.9165 18.6488 16.9858 18.6739 17.0494C18.6991 17.113 18.7412 17.1685 18.7957 17.21L20.0527 18.444V18.715H13.7307V18.445L15.0327 17.18C15.1607 17.052 15.1607 17.015 15.1607 16.82V9.49L11.5407 18.685H11.0507L6.83465 9.49V15.653C6.81731 15.7808 6.82927 15.9109 6.86964 16.0334C6.91001 16.1559 6.97772 16.2676 7.06765 16.36L8.76165 18.414V18.685H3.95965V18.415L5.65465 16.36C5.74385 16.2675 5.81005 16.1553 5.84792 16.0325C5.88579 15.9097 5.89426 15.7797 5.87265 15.653V8.527C5.88264 8.42938 5.86946 8.33079 5.83418 8.23922C5.79891 8.14765 5.74254 8.06569 5.66965 8L4.16365 6.186V5.916H8.83765L12.4507 13.839L15.6267 5.915H20.0827V6.186Z" fill="#1A202C"/>
</svg>
