<svg width="184" height="200" viewBox="0 0 184 200" fill="none" xmlns="http://www.w3.org/2000/svg">
<path fill-rule="evenodd" clip-rule="evenodd" d="M91.5236 193.376C91.7334 193.39 91.9431 193.4 92.1553 193.405C99.9371 193.541 106.442 185.992 102.133 176.873C101.661 183.934 98.555 187.748 91.9805 187.748C91.8257 187.748 91.6747 187.746 91.5236 187.741C91.3738 187.746 91.2227 187.748 91.0654 187.748C84.4934 187.748 81.3872 183.934 80.914 176.873C76.6068 185.992 83.1113 193.541 90.8931 193.405C91.1054 193.4 91.3151 193.39 91.5236 193.376ZM91.5236 182.152C91.6884 182.166 91.8569 182.173 92.0305 182.173C97.806 182.326 99.0307 176.475 97.6012 172.944C96.6848 176.475 94.0143 178.269 91.5236 177.705C89.0341 178.269 86.3624 176.475 85.446 172.944C84.0177 176.475 85.2425 182.326 91.018 182.173C91.1915 182.173 91.3601 182.166 91.5236 182.152ZM91.5236 164.691C92.1591 164.666 92.7621 164.665 93.3264 164.688C111.511 165.486 134.679 171.727 144.233 168.024C150.798 165.479 161.396 157.527 166.341 164.515C167.837 166.631 161.813 171.898 161.689 165.668C159.25 160.652 154.036 168.15 157.824 172.132C144.025 185.78 106.507 170.219 102.923 169.208C101.898 168.918 101.33 170.009 102.142 171.458C103.449 173.795 107.465 177.207 108.441 180.804C110.404 188.049 104.57 199.671 92.9469 199.993C92.4612 200.007 91.988 200 91.5236 199.977C91.0592 200 90.586 200.007 90.1016 199.993C78.477 199.671 72.6453 188.049 74.6079 180.804C75.5818 177.207 79.5994 173.795 80.9053 171.458C81.7168 170.009 81.15 168.918 80.125 169.208C76.5406 170.219 39.0225 185.78 25.2243 172.132C29.0122 168.15 23.7973 160.652 21.359 165.668C21.2354 171.898 15.2102 166.631 16.7072 164.515C21.6524 157.527 32.2507 165.479 38.8153 168.024C48.3686 171.727 71.5379 165.486 89.7208 164.688C90.2864 164.665 90.8894 164.666 91.5236 164.691ZM91.5236 143.138C90.5048 142.992 89.3413 143.428 89.2626 144.42C88.0865 154.313 89.1365 152.859 85.7169 157.008C80.8678 162.894 76.1174 162.379 68.4866 162.803C61.2754 163.204 55.5424 163.69 54.3176 160.583C53.6697 158.94 57.7035 146.658 68.8637 144.398C72.8289 143.595 80.1574 145.572 80.1537 143.214C80.1462 139.207 69.1558 140.402 65.6963 141.293C53.5985 144.409 43.3859 149.344 33.9724 162.988C51.7782 172.245 70.91 163.163 91.0467 162.116C91.204 162.13 91.365 162.148 91.5236 162.165C91.6822 162.148 91.8432 162.13 92.0018 162.116C112.139 163.163 131.269 172.245 149.076 162.988C139.663 149.344 129.45 144.409 117.351 141.293C113.891 140.402 102.901 139.207 102.895 143.214C102.891 145.572 110.218 143.595 114.184 144.398C125.344 146.658 129.378 158.94 128.73 160.583C127.505 163.69 121.773 163.204 114.561 162.803C106.931 162.379 102.181 162.894 97.3315 157.008C93.912 152.859 94.9607 154.313 93.7846 144.42C93.7072 143.428 92.5436 142.992 91.5236 143.138ZM91.5236 84.0052C90.998 83.7031 90.5298 82.6432 90.4924 80.9302C90.3213 72.8264 88.2076 64.2093 89.0254 54.7696C89.3562 51.4399 90.3987 49.5859 91.5236 49.1489C92.6485 49.5859 93.691 51.4399 94.0231 54.7696C94.8408 64.2093 92.7259 72.8264 92.5548 80.9302C92.5186 82.6432 92.0492 83.7031 91.5236 84.0052ZM91.5236 0C79.4046 9.10891 60.1955 11.0965 60.5288 34.5754C60.3403 43.8816 64.6613 49.0927 80.8791 48.9367C85.7307 48.8892 85.7394 65.519 85.5958 72.8201C82.5595 67.6377 79.7018 64.1082 74.2334 59.972C61.7449 49.0628 55.8258 46.7481 55.8258 33.4118C55.8258 23.2692 58.329 20.0456 63.6425 13.2464C44.9603 16.2864 18.0693 32.3107 37.8402 51.6584C46.597 60.1705 60.6387 53.2951 70.2383 61.3366C75.7191 65.3167 86.1077 77.3159 86.1077 85.5596L86.3799 90.4162L85.5334 112.193C85.4485 113.469 83.828 113.213 83.8043 112.065C83.8043 88.541 71.262 71.8663 49.3375 71.8663C41.2373 71.8663 36.5817 73.5505 28.0471 73.2121C19.9869 73.3133 10.491 66.8848 10.1739 60.0881C1.20728 68.7039 2.5419 89.6758 19.0318 87.9467C29.6339 85.7094 30.81 75.4731 46.0639 75.4731C55.6548 75.4132 63.4415 75.6442 71.0011 83.5358C74.3096 86.9904 77.1486 90.2551 79.0001 102.194C79.1711 104.932 78.0438 104.814 77.3858 103.322C71.7252 90.4936 65.8411 87.3711 55.4101 86.9304C38.6367 86.8281 24.1918 111.458 12.0079 111.458C6.44466 111.458 3.22233 109.26 0 104.89C0.289647 115.1 1.69419 124.598 12.702 124.696C19.4538 124.796 24.9421 116.493 28.5877 110.518C34.9175 100.147 47.019 88.0341 60.2629 90.7795C71.8838 93.8295 78.6193 106.048 78.6193 124.084C78.6193 127.685 77.1573 134.031 72.8164 134.031C68.6652 134.031 67.1732 133.032 67.1732 128.974C67.1732 121.51 69.7663 103.85 61.2729 103.85C56.6436 103.669 54.6198 106.388 54.4562 109.922C54.4712 113.835 62.223 117.141 60.8185 111.039C60.3853 109.156 63.4453 108.397 63.6213 111.241C63.4678 117.366 58.0893 116.653 58.6461 129.852C58.6461 140 66.7013 137.903 77.2347 137.965C85.8817 139 82.8155 148.263 76.7491 148.293C73.7515 148.414 72.7802 146.607 70.7876 146.327C69.1246 146.096 67.4866 146.565 67.1133 147.763C66.1832 152.77 73.3532 154.162 79.0351 154.162C83.0851 154.373 77.472 157.608 74.6866 157.694C72.7627 157.753 72.8463 159.709 74.5892 159.753C84.4859 159.475 85.1564 152.688 87.0965 143.559C87.2725 141.196 88.7782 140.168 91.5236 140.03C94.2703 140.168 95.7747 141.196 95.9507 143.559C97.8909 152.688 98.5613 159.475 108.458 159.753C110.202 159.709 110.285 157.753 108.361 157.694C105.576 157.608 99.9621 154.373 104.013 154.162C109.695 154.162 116.864 152.77 115.935 147.763C115.562 146.565 113.925 146.096 112.26 146.327C110.268 146.607 109.296 148.414 106.298 148.293C100.232 148.263 97.1655 139 105.814 137.965C116.348 137.903 124.401 140 124.401 129.852C124.958 116.653 119.579 117.366 119.427 111.241C119.602 108.397 122.663 109.156 122.23 111.039C120.824 117.141 128.576 113.835 128.591 109.922C128.429 106.388 126.405 103.669 121.774 103.85C113.282 103.85 115.875 121.51 115.875 128.974C115.875 133.032 114.382 134.031 110.231 134.031C105.891 134.031 104.429 127.685 104.429 124.084C104.429 106.048 111.165 93.8295 122.784 90.7795C136.031 88.0341 148.13 100.147 154.46 110.518C158.106 116.493 163.593 124.796 170.345 124.696C181.354 124.598 182.759 115.1 183.048 104.89C179.826 109.26 176.604 111.458 171.041 111.458C158.857 111.458 144.41 86.8281 127.637 86.9304C117.206 87.3711 111.323 90.4936 105.663 103.322C105.003 104.814 103.876 104.932 104.048 102.194C105.899 90.2551 108.738 86.9904 112.047 83.5358C119.606 75.6442 127.394 75.4132 136.985 75.4731C152.237 75.4731 153.415 85.7094 164.015 87.9467C180.507 89.6758 181.841 68.7039 172.873 60.0881C172.557 66.8848 163.062 73.3133 155.001 73.2121C146.465 73.5505 141.811 71.8663 133.711 71.8663C111.785 71.8663 99.243 88.541 99.243 112.065C99.2205 113.213 97.5987 113.469 97.5138 112.193L96.6686 90.4162L96.9408 85.5596C96.9408 77.3159 107.328 65.3167 112.809 61.3366C122.409 53.2951 136.45 60.1705 145.21 51.6584C164.979 32.3107 138.088 16.2864 119.405 13.2464C124.718 20.0456 127.223 23.2692 127.223 33.4118C127.223 46.7481 121.302 49.0628 108.815 59.972C103.347 64.1082 100.488 67.6377 97.4526 72.8201C97.3091 65.519 97.3178 48.8892 102.169 48.9367C118.386 49.0927 122.707 43.8816 122.52 34.5754C122.852 11.0965 103.644 9.10891 91.5236 0ZM84.2937 14.7333C79.904 15.9518 77.6105 23.0457 77.9614 30.4255C77.9614 34.332 81.2586 39.5144 83.582 41.1324C81.994 36.8576 79.6281 26.72 84.2937 14.7333ZM89.0866 114.607C89.0866 112.303 86.7182 111.976 86.6296 115.441C86.9579 125.975 82.1375 125.576 81.8429 129.648C81.8429 132.659 82.4309 134.795 86.3012 134.388C89.727 134.388 89.1365 127.901 89.1365 124.898L89.0866 114.607ZM48.079 60.3703C45.2649 64.9572 36.3158 69.0335 30.5753 69.0335C9.64826 69.0335 10.4648 46.3748 26.6164 35.6891C26.1956 51.1253 34.0149 60.3278 48.079 60.3703ZM25.4815 90.6134C22.9383 100.679 18.7734 106.962 10.2113 106.962C-1.21103 105.844 -0.625488 89.3413 1.82028 82.994C7.54582 93.3177 16.9344 93.9968 25.4815 90.6134ZM72.7677 126.713C74.8539 126.509 75.6467 128.715 74.8676 130.233C74.0886 131.752 71.9187 131.575 70.9824 130.089C70.2682 128.958 70.7077 126.777 72.7677 126.713ZM16.3651 139.389C11.6146 139.389 5.77797 131.845 5.11627 127.13C8.04771 128.412 11.6533 129.801 15.2564 129.24C19.3577 128.426 19.5787 128.02 21.7348 125.086C25.5639 131.15 24.6725 139.389 16.3651 139.389ZM24.6263 149.649C18.3739 151.564 13.762 143.856 12.5934 141.56C16.6934 144.086 24.6163 143.961 26.2268 139.46C27.8286 143.753 28.7126 147.724 24.6263 149.649ZM26.8611 157.632C24.203 157.174 22.58 155.958 22.0719 153.973C25.3367 154.489 28.7712 153.521 30.0397 150.781C31.7326 153.744 31.2944 158.397 26.8611 157.632ZM57.2091 149.069C54.3851 151.803 51.6671 156.928 49.4561 160.2C48.0265 162.314 45.793 161.576 46.3773 160.349C48.1564 156.623 53.2439 150.29 57.2091 149.069ZM54.9581 147.286C52.2052 150.066 48.8718 153.335 48.1639 154.176C43.6806 159.511 41.4633 162.626 40.2011 159.515C39.9476 158.887 42.4159 155.185 46.0727 152.503C48.9467 150.396 51.4074 148.316 54.9581 147.286ZM74.2272 196.33C70.0135 198.57 59.3053 196.001 57.7235 190.793C63.9472 187.745 67.0035 185.359 71.674 181.676C71.503 188.618 72.2271 190.863 74.2272 196.33ZM40.0712 181.827C43.1974 181.397 50.4461 181.864 55.0468 180.395C62.5264 178.008 66.6302 177.399 73.6142 174.464C70.9212 179.514 63.2717 184.06 60.7723 185.759C54.3164 191.303 41.3559 190.874 40.0712 181.827ZM98.7548 14.7333C103.143 15.9518 105.438 23.0457 105.087 30.4255C105.087 34.332 101.79 39.5144 99.4664 41.1324C101.053 36.8576 103.419 26.72 98.7548 14.7333ZM93.9606 114.607C93.9606 112.303 96.3303 111.976 96.4189 115.441C96.0893 125.975 100.911 125.576 101.204 129.648C101.204 132.659 100.618 134.795 96.746 134.388C93.3214 134.388 93.9119 127.901 93.9119 124.898L93.9606 114.607ZM134.968 60.3703C137.782 64.9572 146.731 69.0335 152.473 69.0335C173.399 69.0335 172.584 46.3748 156.432 35.6891C156.852 51.1253 149.034 60.3278 134.968 60.3703ZM157.567 90.6134C160.11 100.679 164.274 106.962 172.837 106.962C184.259 105.844 183.674 89.3413 181.228 82.994C175.503 93.3177 166.115 93.9968 157.567 90.6134ZM110.281 126.713C108.193 126.509 107.401 128.715 108.18 130.233C108.96 131.752 111.129 131.575 112.066 130.089C112.779 128.958 112.34 126.777 110.281 126.713ZM166.683 139.389C171.433 139.389 177.269 131.845 177.933 127.13C175.001 128.412 171.394 129.801 167.792 129.24C163.691 128.426 163.47 128.02 161.312 125.086C157.483 131.15 158.375 139.389 166.683 139.389ZM158.421 149.649C164.675 151.564 169.286 143.856 170.455 141.56C166.355 144.086 158.432 143.961 156.822 139.46C155.22 143.753 154.336 147.724 158.421 149.649ZM156.186 157.632C158.845 157.174 160.467 155.958 160.977 153.973C157.712 154.489 154.277 153.521 153.008 150.781C151.316 153.744 151.753 158.397 156.186 157.632ZM125.839 149.069C128.665 151.803 131.38 156.928 133.594 160.2C135.022 162.314 137.255 161.576 136.67 160.349C134.891 156.623 129.803 150.29 125.839 149.069ZM128.09 147.286C130.842 150.066 134.177 153.335 134.885 154.176C139.367 159.511 141.584 162.626 142.847 159.515C143.101 158.887 140.631 155.185 136.976 152.503C134.102 150.396 131.64 148.316 128.09 147.286ZM108.82 196.33C113.035 198.57 123.742 196.001 125.325 190.793C119.101 187.745 116.044 185.359 111.373 181.676C111.544 188.618 110.821 190.863 108.82 196.33ZM142.976 181.827C139.85 181.397 132.6 181.864 128 180.395C120.521 178.008 116.418 177.399 109.436 174.464C112.127 179.514 119.777 184.06 122.275 185.759C128.732 191.303 141.693 190.874 142.976 181.827Z" fill="#9BBEEE"/>
</svg>
